<svg id="Layer_1" data-name="Layer 1" xmlns="http://www.w3.org/2000/svg" xmlns:xlink="http://www.w3.org/1999/xlink" viewBox="0 0 438.18 464.06"><defs><style>.cls-1{fill:url(#linear-gradient);}.cls-2{fill:url(#linear-gradient-2);}.cls-3{fill:url(#linear-gradient-3);}.cls-4{fill:url(#linear-gradient-4);}.cls-5{fill:url(#linear-gradient-5);}.cls-6{fill:url(#linear-gradient-6);}.cls-7{fill:url(#linear-gradient-7);}.cls-8{fill:url(#linear-gradient-8);}.cls-9{fill:url(#linear-gradient-9);}.cls-10{fill:url(#linear-gradient-10);}.cls-11{fill:url(#linear-gradient-11);}.cls-12{fill:url(#linear-gradient-12);}.cls-13{fill:url(#linear-gradient-13);}.cls-14{fill:url(#linear-gradient-14);}</style><linearGradient id="linear-gradient" x1="43.5" y1="294.69" x2="474.73" y2="184.39" gradientUnits="userSpaceOnUse"><stop offset="0" stop-color="#e11d3c"/><stop offset="0.14" stop-color="#e22338"/><stop offset="0.4" stop-color="#e32636"/><stop offset="0.63" stop-color="#b01d27"/><stop offset="1" stop-color="#580d0d"/></linearGradient><linearGradient id="linear-gradient-2" x1="-0.52" y1="122.6" x2="430.71" y2="12.3" xlink:href="#linear-gradient"/><linearGradient id="linear-gradient-3" x1="20.19" y1="203.57" x2="451.43" y2="93.27" xlink:href="#linear-gradient"/><linearGradient id="linear-gradient-4" x1="77.51" y1="427.65" x2="508.74" y2="317.36" xlink:href="#linear-gradient"/><linearGradient id="linear-gradient-5" x1="71.42" y1="403.87" x2="502.66" y2="293.58" xlink:href="#linear-gradient"/><linearGradient id="linear-gradient-6" x1="78.01" y1="429.63" x2="509.25" y2="319.33" xlink:href="#linear-gradient"/><linearGradient id="linear-gradient-7" x1="36.52" y1="267.38" x2="467.75" y2="157.08" xlink:href="#linear-gradient"/><linearGradient id="linear-gradient-8" x1="33.12" y1="254.11" x2="464.35" y2="143.81" xlink:href="#linear-gradient"/><linearGradient id="linear-gradient-9" x1="61.99" y1="366.98" x2="493.22" y2="256.68" xlink:href="#linear-gradient"/><linearGradient id="linear-gradient-10" x1="10.97" y1="167.52" x2="442.2" y2="57.22" xlink:href="#linear-gradient"/><linearGradient id="linear-gradient-11" x1="-3.73" y1="110.03" x2="427.5" y2="-0.27" xlink:href="#linear-gradient"/><linearGradient id="linear-gradient-12" x1="18.33" y1="196.28" x2="449.56" y2="85.98" xlink:href="#linear-gradient"/><linearGradient id="linear-gradient-13" x1="55.25" y1="340.65" x2="486.49" y2="230.35" xlink:href="#linear-gradient"/><linearGradient id="linear-gradient-14" x1="78.71" y1="432.35" x2="509.94" y2="322.05" xlink:href="#linear-gradient"/></defs><title>bookmark</title><polygon class="cls-1" points="103.7 225.28 103.7 328.4 113.69 330.75 113.69 253.29 111.66 242.33 103.7 225.28"/><polygon class="cls-2" points="106.55 92.49 113.69 115.58 113.69 71.19 110.95 73.93 106.55 92.49"/><polygon class="cls-3" points="103.7 195.83 113.69 231.41 113.69 158.08 103.7 130.45 103.7 195.83"/><polygon class="cls-4" points="313.63 359.81 282.67 373.85 293.83 379.77 312.95 371.1 313.63 359.81"/><polygon class="cls-5" points="148.42 372.21 154.95 386.15 166.7 391.48 173.58 383.62 148.42 372.21"/><path class="cls-6" d="M217.36,403.47,176.3,384.85l6.33,13.51s.05.14.13.4l30.47,13.81h8.26l34.18-15.49c-.9-3.75-1.8-7.28-2.48-9.86Z"/><path class="cls-7" d="M231.46,257.75l.26.13h.13c1.65-.37,2.48-1.07,2.48-2.09C232.42,256.27,231.46,256.92,231.46,257.75Zm0,0,.26.13h.13c1.65-.37,2.48-1.07,2.48-2.09C232.42,256.27,231.46,256.92,231.46,257.75ZM314,71.19H120.7v67l2.19,7.09-2.19,29.33V352l96.66,43.83,55.87-25.33,1.83-20.09,5.44,16.79L314,352V261.9l-7.3,31.27V255.89L314,234V122.17l-1.17-3.64,1.17.29V105l-6.21-8,6.21,1.5Zm-59.48,171q0,7.31-11.9,10.33c0,.09-2.12.78-6.22,2.09-.63,2.63-1.78,3.94-3.43,3.94,0,.24-.69.36-2.08.36H229.7c-1.17,0-1.86-.86-2-2.58v-.68q0-5.78,7.76-9.32c0-.18,2.2-1.38,6.55-3.62v-.16q0-.52-2.25-.69a16.13,16.13,0,0,0-6.2,1.89H233c-1.37,0-2.64-1.95-3.81-5.87v-1.37q0-4.1,8.44-10.88l.2-.69a1.47,1.47,0,0,0-.52-.16q-1,0-6.39,2.57h-.33q-3.45,0-5.18-9.29v-1c0-2.72.86-4.32,2.57-4.82h.36a9.69,9.69,0,0,1,2.74,1.37,1.27,1.27,0,0,0,.52.19,6.62,6.62,0,0,1,2.77-.52h1.57q11.83,0,13.59,2.57a8.65,8.65,0,0,1,2.09,5.19v1.2q0,4.08-7.08,10.17v.17h.36a5.58,5.58,0,0,1,2.9-1.21h.52q2.41,0,5.71,6.55a13.3,13.3,0,0,1,.52,3.62ZM279.6,183A19.54,19.54,0,0,1,272,199.07l-2.07.44c-.35,0-.74-.39-1.18-1.18a4.82,4.82,0,0,0,.81-2.45v-1.19a4.56,4.56,0,0,0-4.45-2.44h-2.81q-8.44,0-47.94,17.34-8.23,0-19,46.76l1.18,8.07q-1.56,7.63-14.89,7.64h-2q-10.45,0-13.27-7.27V262q0-1.26,5.19-12.53a196.52,196.52,0,0,1,11.34-37h-.45q-11-3.18-16.52-11.7a24.61,24.61,0,0,1-2.82-10.45v-1.63q0-11.34,13.71-18.53h.82Q183.27,181,194.16,181a20.74,20.74,0,0,0,4.82.37h1.63q13.11,0,46.75-14.08a35.53,35.53,0,0,1,10.08-1.63h2.37q14,0,19.42,11.7l.37,4Zm-48.14,74.76.26.13h.13c1.65-.37,2.48-1.07,2.48-2.09C232.42,256.27,231.46,256.92,231.46,257.75Zm0,0,.26.13h.13c1.65-.37,2.48-1.07,2.48-2.09C232.42,256.27,231.46,256.92,231.46,257.75Zm0,0,.26.13h.13c1.65-.37,2.48-1.07,2.48-2.09C232.42,256.27,231.46,256.92,231.46,257.75Z"/><polygon class="cls-8" points="321.01 213 331.01 183 331.01 145.39 321.01 150.17 321.01 213"/><polygon class="cls-9" points="120.54 370.55 137.44 367.23 113.69 356.47 113.69 334.2 103.7 343.1 103.7 356.47 109.57 365.57 120.54 370.55"/><polygon class="cls-10" points="321.01 81.19 321.01 100.27 331.01 102.69 331.01 81.19 321.01 71.19 321.01 81.19"/><polygon class="cls-11" points="107.59 77.3 103.7 81.19 103.7 86.81 107.59 77.3"/><polygon class="cls-12" points="321.01 120.55 327.35 122.11 321.01 114 321.01 120.55"/><polygon class="cls-13" points="321.01 237.49 321.01 329.88 331.01 314.77 331.01 212.91 321.01 237.49"/><polygon class="cls-14" points="278.12 386.11 274.79 377.43 260.28 384.01 278.12 386.11"/></svg>