<svg id="Layer_1" data-name="Layer 1" xmlns="http://www.w3.org/2000/svg" xmlns:xlink="http://www.w3.org/1999/xlink" viewBox="0 0 679.72 464.06"><defs><style>.cls-1{fill:url(#linear-gradient);}.cls-2{fill:url(#linear-gradient-2);}.cls-3{fill:url(#linear-gradient-3);}.cls-4{fill:url(#linear-gradient-4);}.cls-5{fill:url(#linear-gradient-5);}.cls-6{fill:url(#linear-gradient-6);}.cls-7{fill:url(#linear-gradient-7);}.cls-8{fill:url(#linear-gradient-8);}.cls-9{fill:url(#linear-gradient-9);}.cls-10{fill:url(#linear-gradient-10);}.cls-11{fill:url(#linear-gradient-11);}.cls-12{fill:url(#linear-gradient-12);}.cls-13{fill:url(#linear-gradient-13);}.cls-14{fill:url(#linear-gradient-14);}.cls-15{fill:url(#linear-gradient-15);}</style><linearGradient id="linear-gradient" x1="5.23" y1="195.3" x2="746.68" y2="72.75" gradientUnits="userSpaceOnUse"><stop offset="0" stop-color="#e11d3c"/><stop offset="0.14" stop-color="#e22338"/><stop offset="0.4" stop-color="#e32636"/><stop offset="0.63" stop-color="#b01d27"/><stop offset="1" stop-color="#580d0d"/></linearGradient><linearGradient id="linear-gradient-2" x1="5.8" y1="198.75" x2="747.25" y2="76.19" xlink:href="#linear-gradient"/><linearGradient id="linear-gradient-3" x1="6.45" y1="202.68" x2="747.9" y2="80.13" xlink:href="#linear-gradient"/><linearGradient id="linear-gradient-4" x1="6.73" y1="204.36" x2="748.17" y2="81.81" xlink:href="#linear-gradient"/><linearGradient id="linear-gradient-5" x1="6.09" y1="200.48" x2="747.53" y2="77.93" xlink:href="#linear-gradient"/><linearGradient id="linear-gradient-6" x1="6.18" y1="201.03" x2="747.62" y2="78.47" xlink:href="#linear-gradient"/><linearGradient id="linear-gradient-7" x1="22.8" y1="301.58" x2="764.24" y2="179.02" xlink:href="#linear-gradient"/><linearGradient id="linear-gradient-8" x1="23.54" y1="306.11" x2="764.99" y2="183.55" xlink:href="#linear-gradient"/><linearGradient id="linear-gradient-9" x1="23.26" y1="304.38" x2="764.71" y2="181.83" xlink:href="#linear-gradient"/><linearGradient id="linear-gradient-10" x1="22.75" y1="301.28" x2="764.19" y2="178.72" xlink:href="#linear-gradient"/><linearGradient id="linear-gradient-11" x1="23.77" y1="307.45" x2="765.21" y2="184.9" xlink:href="#linear-gradient"/><linearGradient id="linear-gradient-12" x1="24.78" y1="313.61" x2="766.23" y2="191.06" xlink:href="#linear-gradient"/><linearGradient id="linear-gradient-13" x1="23.87" y1="308.05" x2="765.31" y2="185.5" xlink:href="#linear-gradient"/><linearGradient id="linear-gradient-14" x1="24.36" y1="311.06" x2="765.81" y2="188.51" xlink:href="#linear-gradient"/><linearGradient id="linear-gradient-15" x1="25.38" y1="317.22" x2="766.83" y2="194.66" xlink:href="#linear-gradient"/></defs><title>title</title><path class="cls-1" d="M263.58,122.81a17.78,17.78,0,0,0,.08,2.39c-.83.39-1.91,1-3,1.59a3.7,3.7,0,0,0-.46,1.14l-1.45-.15a.39.39,0,0,0,.13.25,9.64,9.64,0,0,0-2.19,1.47l-2,2.7a37.33,37.33,0,0,1-2.08,4l-.17,0a11.09,11.09,0,0,1,.66-2.15c-1.48.84-2.35,2.21-3.35,5.12l.47.2-.38,1c-2.1,2.09-3.27,5.11-4.55,7.87-2,3.59-3.39,7.35-5.08,11.07-.86,2-1.62,4.15-2.4,6.13a13.4,13.4,0,0,0-.94,1.48,17.88,17.88,0,0,0-1.71,4.78c-.29,2.9-1.31,5.09-2.26,7.72a48.38,48.38,0,0,1-2.74,8.14,6.9,6.9,0,0,0-1.4,2.61c-.3,1-.22,2.17-.47,3.54.12.79.08,1.15-.67.9-.31.94-.72,1.8-1.79,1.77l.28,1.92c-.85-.32-1.45-.77-2.31-1.18a2.53,2.53,0,0,1-.32.85c-.57-.27-1.06-.56-1.72-.82-1.16,1.24-2.17,1-3.12-.61l-1,1L216,194.35l-.27,0c0-.54.14-1.54.12-2.24.12-.47.38-1.13-.5-1a8.14,8.14,0,0,1-.1-1.32,4,4,0,0,0,.13-2.78,5.64,5.64,0,0,1,0-1.69,3.35,3.35,0,0,1-.18-3.72c.11-.46.25-1.37-.07-1.68-.88-1.21-.65-2.66-.75-4a25.85,25.85,0,0,1,.37-5.39c.26-2.53.77-5.1,1.25-7.93l-.8.56c-1.26,2.41-2.34,4.79-3.64,6.85-1,1.75-1.39,3.94-2.44,5.25s-.87,3.25-1.84,4.54c-.72,1.18-1.41,2.52-2,3.77-.76,2.16-1.92,3.93-2.52,6a26.57,26.57,0,0,0-1.34,6.69,15,15,0,0,1-1.39,3.94c-.2-.15-.25-.5-.46-.73-.26.66-.63,1.16-.82,1.72l.37.66-.34-.49a6.93,6.93,0,0,0-.73,1.71l.22.32c-1.12.25-.55-1.34-1.41-1.75l-.42.77-.4.95c-1.52-.67-1.55-2.09-2.15-3.16-.34.14-.4.33-.55.53.4.92.4.92,0,2l-1.65-.29a7.48,7.48,0,0,0,.56-2.31c-.85.3-1.48.84-2.08,1l-.91-.75-.21,1c-.53,0-.86-2.28-.63-3.74a15.34,15.34,0,0,1-.18-8.61l-.38-.75a4.39,4.39,0,0,0,1-.22l-.56-1.44c.17,0,.23-.21.47-.42-.19-.68.09-1.79-.05-2.75-.06-.44.38-1.13.46-1.76l.77-3.94a16.49,16.49,0,0,1,.36-3l.49-2.74.47-2.3c0-.17.23-.3.2-.47-.5-1.62.79-3.14.54-4.89.66.26.56-.43.53-.61-.24-2.28.48-4.07,1.14-6.31s.82-4.75,1.44-7.24a16.44,16.44,0,0,0,.55-2.3c.17-.65.3-1.65.47-2.3a11.16,11.16,0,0,1,.57-2.22c.12-.37.16-.73-.5-1,.66-3.39,1.39-7,2.2-10.56a3.06,3.06,0,0,0,1.1.2c.34-.14.44-.69.7-.73a11.61,11.61,0,0,1,2.46-.18,6.1,6.1,0,0,1,3.05.72c.67.34,1.8.18,2.5.7,1,.48,1.85,1.07,2.54,1.5a3.17,3.17,0,0,1-.22,2.79c-.61,1.34-1.06,2.56-1.56,4-.54,1.86-1.5,3.78-2.26,5.94a6.16,6.16,0,0,1,.09,1.23,83.28,83.28,0,0,0-2.86,12.17c-.67,3.39-1.62,6.64-2.31,9.86a23.85,23.85,0,0,1-1.35,4.82,1.88,1.88,0,0,0,0,.63.87.87,0,0,1,.24.41,4.35,4.35,0,0,0,.61-2,4.14,4.14,0,0,1,1-1.93,11.37,11.37,0,0,1,2.15-2.36,1.94,1.94,0,0,0-.4-.92,3,3,0,0,0,1-.51c-.39-.21-.4-.29-.65-.79l4.72-8a6.53,6.53,0,0,1,.27,1.3c.29-1.11,1.39-1.45.83-2.88-.05-.35.41-.86.78-1.36,1.17-1.77,2.59-3.67,4-5.48.29-.49.85-.92,0-1.52-.2-1.4.69-2,1.39-2.7a6.68,6.68,0,0,1,.07,1.06c0-.27.22-.3.21-.38.06-1.44,1-2.11,1.48-3.25a28.53,28.53,0,0,0,1.28-2.85c.45,0,1.13-1.41,2-.12a1.2,1.2,0,0,1,.55-.52l.06.43c.79-.11,1.34,1.23,2.25,1.37l.62.62c1.06-.06,1.94-1.35,3-.44A7.52,7.52,0,0,1,229.5,145c.26,0,.64.08,1,0a126.08,126.08,0,0,1-4,17.41,2.78,2.78,0,0,1-.86.21,16.61,16.61,0,0,0,.18,1.84,18.64,18.64,0,0,1-.56,3.47,3.83,3.83,0,0,0,.23,2.81,11.68,11.68,0,0,1-.84,2.17c.27.05.29.23.38.22.49-1,.77-2.07,1.28-2.86l4.86-11.92c1.17-2.93,2.65-5.64,3.91-8.58.45-1.23,1.41-2,1.68-3.19.44-1.84,1.64-3.44,2.27-5.22a11.41,11.41,0,0,1,2-3.5,2.37,2.37,0,0,0,.51-1.4,11.89,11.89,0,0,0,.68-1.44c.3-.4.2-1.09.54-1.86a78,78,0,0,1,3.79-7,7.49,7.49,0,0,1,1.36-2.33c1.56-2.72,3.32-5.29,5.06-8,.37-.51.91-1.12,1.37-1.63.63-.54,1.21-.26,1.88.71,1.22-.8,2.58,0,4-.13a7.28,7.28,0,0,0-.6,1.42,1.82,1.82,0,0,0,.75.87,1.62,1.62,0,0,1,2.45.89c-.35,1.29.23,2.81-1,3.53C262.48,122,263.09,122.52,263.58,122.81Zm-71.47,67.62c.41-1.48.41-1.48-.29-3.25a15.35,15.35,0,0,0-.73,2.33,3.71,3.71,0,0,0,.66.88l-1-.48a16,16,0,0,1,.07,2.93c.93-.94.72-1.8.89-2.45A.51.51,0,0,1,192.11,190.43Zm4.53-12.32c.52-2.57,1-5.31,1.43-8-.08,0-.11-.17-.2-.15-.49,2.74-1.54,5.3-1.67,8.07C196.37,178.06,196.47,178.13,196.64,178.11Zm7.81-25.35c-.17,0-.26,0-.34.14-.88,2.53-2,4.82-3,7.28a9,9,0,0,0-.28,3,3.31,3.31,0,0,1-.3,2.18c-.36,1.21-1.24,1.87-.68,3.3l-.1.55c-.48,2.21-.89,4.32-1.45,6.53,0,.45.16,1.14.16,1.76a.64.64,0,0,1,.48.2l.29-1c.41-2.11,1-4.24,1.3-6.42l2.11-9.39a2.17,2.17,0,0,0,.23-.84,2,2,0,0,1-.08-1.76c.42-1.4.76-2.78,1.28-4.11Zm1.59-4.41-.48-.2a21.89,21.89,0,0,0-.55,2.3L204.7,152Zm13.69,36.11a14.83,14.83,0,0,0,.45-3.09c.16-2.52-.19-5,.43-7.45.07-.72.14-1.45.22-2.17a.73.73,0,0,0-.36,0l-.5,1.5a49.37,49.37,0,0,0-.71,10.43,1.88,1.88,0,0,0,.19.69A.24.24,0,0,0,219.73,184.46Z"/><path class="cls-2" d="M263.65,147.82l-1.71,3.54c-.2.47-.14.91.47.82a5.05,5.05,0,0,0,1.67-.15c2.22-.68,4.32-1.52,6.35-2.26a16.09,16.09,0,0,1,2.74-.75c.7-.1,0-.71.52-.7a4.91,4.91,0,0,0,1.15-.08,1.4,1.4,0,0,0,.71-.64c.07-.1,0-.26-.07-.43.14-.29-.38-.84.44-.69.36,0,.56.19.29.76-.48.43.13.34.31.31a.68.68,0,0,0,.38-1c.06-.19-.07-.53,0-.63a1,1,0,0,1,.67-.27c.91.13,2-.12,2.88.83.12.16.55.1.81.06a28.94,28.94,0,0,1,4.8-.7c1.23-.09,1.89.79,2.56,1.68a.58.58,0,0,1-.31.93l-.09,0c-.63.53,1,1-.31,1.55-.67.28-.64.45-.31,1.56.13.25.32.31.17.51-.18.65.26.59.61.54l.61-.09c1.49-.75,1.39-.2,1.41,1.13a4.31,4.31,0,0,1-.52,1.32c-.25.75-.8.65-1.21.89l-1.33.64a23.65,23.65,0,0,1-5.4,2,20.83,20.83,0,0,0-3.14,1.08,21.27,21.27,0,0,1-6.45,1.56A19.22,19.22,0,0,0,266.3,163a16.82,16.82,0,0,1-6.88,1.09,6.36,6.36,0,0,0-2.2.76,2.3,2.3,0,0,0-1.29,2.15,16.57,16.57,0,0,1-.73,2.33c-.57,1.6-1,3.18-1.51,4.94-.08.1-.24.21-.22.3,0,2,0,1.87,1.61,1.28,2-.57,4.08-1.31,6.13-1.87,1.17-.53,2.56-.82,3.81-1.36a29.52,29.52,0,0,1,4.76-1.58,1.85,1.85,0,0,0,1.59-.67c.2-.48.42,1,.81.06.23-.3.68-.28,1.1-.43a3.42,3.42,0,0,1,1.26-.54,12,12,0,0,0,4.75-1.58,11,11,0,0,1,5.07-.64c1.26.08,1.85,1.06,2.26,2.07.25.5-.12,1-.7,1.26-.25.13-.59.26-.54.61-.22.3-.15.83-.18,1.19a2.65,2.65,0,0,0,.56.18c.3.23.78.51.36,1.29-.21.38.26.58.55.72.1.07.13.25.31.31-.26,0-.35.05-.41.24a1,1,0,0,1-.49.25,1,1,0,0,0,.46.11l.46.11,1.18.81a6.44,6.44,0,0,1-1.29.27c-.87.13-.26.66-.15.83s.47.19-.1.54a2.6,2.6,0,0,0-.74.38l-6.55,2.11a15.73,15.73,0,0,1-2,.46,13.16,13.16,0,0,0-4.24,1.51c-3.63,1.95-7.38,4.36-11.4,5.48-2.06.48-4,1.57-6,2-2.73.84-5.33,1.31-7.64.13-.46-.11-.69-.43-1.16-.63-.41-.39-.68-1-1.24-1.16-.7-.52-.74-1.4-1.27-2a1.2,1.2,0,0,1,.89-1.2l2.58-.64c.17,0,.25-.12.41-.23-.09,0-.3-.23-.39-.22-.67-.34-1.51-.58-2.45-1a3.13,3.13,0,0,1-1.94-2.92,5.39,5.39,0,0,1,.15-2.6,16.89,16.89,0,0,0,.47-2.92c.26-.66.16-1.36.41-2.11s0-1.5.1-2.33c.28-.57.28-.57.88-.75l.17,0c0-.54.21-1,.06-1.43,0-.18-.06-.44.18-.57s.14-.28.2-.47c-.91-.13-.27-1.29-.76-1.58,0,0,0-.26,0-.27a10,10,0,0,1,1.39-.83c.09,0,.06-.19.13-.37-.09,0-.12-.16-.2-.15a2.74,2.74,0,0,1-2-.34c-.3-.22-.53-.54,0-.7s-.32-.94.55-1.07c-.18-.06-.2-.14-.2-.14-1.43-.69-2-2-2.53-3.37a3.4,3.4,0,0,1-.36-1.82c0-.35.44-.69.56-1.06.46-.52.61-.09.89,0a10,10,0,0,0,3.12.08,21.88,21.88,0,0,0,3.23-1.09c.26,0,.5-.25.7-.73l2.09-5.2c.87-2,1.35-4.2,2.55-6.33A1.4,1.4,0,0,0,255,140l-1.34-1.23a6.74,6.74,0,0,0-1.21-1.6c-.64-.71-.07-1.69-.36-2.45-.1-.07,1.1-1.05,1.29-1a11.33,11.33,0,0,1,2.4,0c.92.23,1.92-.28,3-.25.26,0,.21-.39.28-.49.61-.71.49-1.58.9-2.44.21-1,.8-1.81,1-2.65a4,4,0,0,0,.19-1.72c0-.26-.32-.39-.25-.5a3.72,3.72,0,0,0,.7-.72c-.26-.58,0-.8.57-1a4.25,4.25,0,0,1,1.07-.6.67.67,0,0,1,.45,0c.61.54,1.29.35,2,.33.74.16,1,.92,1.68,1.1a11.3,11.3,0,0,1,4.1,2.52c.11.16.07.43.2.77.29.76.75.87,1.61.65a42.33,42.33,0,0,1,9.59-2.63,13.13,13.13,0,0,0,3-1.07c.09,0,.25-.12.24-.21.26-1.29.95-.76,1.53-.49a2.65,2.65,0,0,0,1.89.17,25.7,25.7,0,0,0,2.76,0l2.21-.06c.45,0,.8,0,1.11.29a.73.73,0,0,1,.28.67c-.68.81-.2,1.09.06,1.68s.19.68-.18,1.18c-.71.64-.58.89-.28,1.74v.53c0,.09-.69.19-.13.38.35-.05.53-.08.63,0,.28.14.67.35.61.54-.11.46-.53.07-.64-.09-.17,0-.55-.1-.72-.07a1.31,1.31,0,0,0-.6.18c.19.06.28,0,.39.21l.73.16c.55.1.35.57.3.84s-.47.43-.64.45-.3-.22-.58-.27-.31.31-.12.38c.47.19.41.38-.07.72s-.21.38,0,.62c.19.06.29.14.31.31.19.06,0,.36,0,.54a.91.91,0,0,1-.45,0c-.45,0-.76-.33-1.32-.52-.36,0-.67-.34-.84-.23-1.14.7-2.24-.12-3.14.45-.24.13-.83.39-.94.23a3.5,3.5,0,0,0-2.74.75,2.46,2.46,0,0,1-1.72.43,3,3,0,0,0-2.47.8,8.87,8.87,0,0,1-5.8,1.74,5,5,0,0,0-1.54.4,13.28,13.28,0,0,1-2.27.95,3.88,3.88,0,0,0-1.32.73.34.34,0,0,0,.12.16c0,.09.12.25.13.33-.26,0-.86.22-.87.13a1.72,1.72,0,0,0-1.92-.34,7.92,7.92,0,0,0-2.44,1.6c-.33.13-.47.42-.77.82a.29.29,0,0,0,.12.16.51.51,0,0,1,.31.31c-.44.69-1,1.39-1.31,2.06a3.15,3.15,0,0,0-1.44,1.72c0,.09,0,.35.08.53.07-.1.25-.13.24-.21a6.48,6.48,0,0,1,1.2-1.51C263.73,147.18,263.88,147.61,263.65,147.82Zm28.81-15.58a2.11,2.11,0,0,0-.57.35l.13.34a7.69,7.69,0,0,0,.81.68c.28,0,.43-.15.6-.17,0-.09.3-.41.13-.38Z"/><path class="cls-3" d="M295.65,183.06c0-.63,0-.89-.61-1.16-1.23-.45-1.45-.77-1.29-2.13L295,174l.38-2.91c0-.08-.22-.23-.23-.32-.07.1,0,.18-.13.29-.56,1.68-.93,3.43-1.33,5a14.73,14.73,0,0,1-2.06,4.21c-.34.68-.73.46-.91-.13a6.51,6.51,0,0,1-.22-2.2,7.75,7.75,0,0,1,.39-3.43,9.35,9.35,0,0,0,.12-1.62,73.13,73.13,0,0,1,1.44-7.25c.11-.46.06-.81.18-1.18,0-.17.14-.29.19-.56l.26.58a.77.77,0,0,1,.23.33c.16-.12.15-.2.12-.38a1.89,1.89,0,0,0,.34-.76c.63-2.4,1.26-4.81,2-7.23,0-.45.51-.79.82-1.1,1.22-.8,1-2.11,1.42-3.14.14-.2-.18-.6-.21-.77a4.67,4.67,0,0,1-.15-1c.08-.1.25-.12.41-.24l.05.35c.07.44.23.33.28.05.26-.66.43-1.31.68-2.06l.34-1.29a.46.46,0,0,0,.14-.29c0,.17.1.07.11.16a1.55,1.55,0,0,1-.07,1.35c-.06.18.17.51.28.67l.31-.31a6.3,6.3,0,0,0,1-2.73c0-.18.21-.39.3-.4s.29.22.31.31a4.25,4.25,0,0,1-.12,1l.15.43.48-.34a3.51,3.51,0,0,0,.33-.76,32.45,32.45,0,0,0,1.67-5.67l1-3.88.11-.46c-.17.11-.44.06-.51.16a3.76,3.76,0,0,0-.4,1c-.58,2.13-1.26,4.19-1.94,6.25,0,.17-.05.27-.2.47h-.09s-.19-.06-.2-.15l.05-.89,3.19-11.15a2.87,2.87,0,0,0,.25-.75,2.48,2.48,0,0,1,0-.79,2.78,2.78,0,0,0-.63.53l-.94.94a5.54,5.54,0,0,1-1.18,1.68,10.82,10.82,0,0,0-1.4,2.61,1.19,1.19,0,0,1-.3.4.79.79,0,0,0-.26-.58c-.35-.58,0-1.16.11-1.71l-.15-.42c-.08.09-.24.21-.14.28l-.37.5c-.15.2.09.61-.39.41a.61.61,0,0,1-.36-.66,12.62,12.62,0,0,1,.47-2.29c0-.45-.06-.44-.47-.2-.09,0-.23-.32-.23-.32a6.32,6.32,0,0,0,.73-3.58,8.23,8.23,0,0,0-.3-3.87c-.39-.84.21-1.64.37-2.37,0-.09.42-.15.5-.25l2.06.68a1.1,1.1,0,0,0,1.17.09c1.11-.33,2.16-1,3.3.06,0,.09.27,0,.45,0,.86-.21.86-.21.62.63-.12.37,0,.53.34.48.17,0,.42-.15.68-.19a17.56,17.56,0,0,1,1.66,1L313,125.7a4.06,4.06,0,0,1,1.13,1.08,5.78,5.78,0,0,0,1.59,2.36.83.83,0,0,1,.46.73c.4.3.2.77-.41.86s-.78.74-1.23,1.34a35.44,35.44,0,0,1-2.33,5.41,11,11,0,0,0-.41,1.48,83,83,0,0,1-2.31,8c-.41.87-.36,1.84-.7,2.51a19.94,19.94,0,0,0-1.57,5.12,25.42,25.42,0,0,1-2.23,6.74,9.15,9.15,0,0,0-1.31,3.22c-.1.54-.3,1-.47,1.67a11.32,11.32,0,0,1-.33,1.47c-.9,1.73-1.05,3.8-1.48,5.73a37.33,37.33,0,0,1-1.41,5c-.55,1.69-.91,3.52-1.44,5.38a6.88,6.88,0,0,1-1.58,3.25c-.16.12-.47.43-.58.27a.71.71,0,0,1-.53-.55,1.71,1.71,0,0,0-.1-.7C295.14,185.09,295.52,184,295.65,183.06Zm4.19-26.34c.32-.85.64-1.7.94-2.72a2.43,2.43,0,0,0,0-1.07c-.51.16-.34.67-.57,1s-.23.84-.37,1.13a4.67,4.67,0,0,0-.34,1.29c-.08.1.13.34.15.43Z"/><path class="cls-4" d="M335.24,124.61a18.65,18.65,0,0,0,2.24-1.75,14.47,14.47,0,0,0,1.44-1.1c.49-.34,1.29-.37,1.16-1.24,0,0,.14-.29.22-.3,2.06-.56,3.31-2.35,5.14-3.24.35,0-.34-.48.26-.66.26,0,.47-.42.8-.65a15.13,15.13,0,0,1,2.82-2,9.16,9.16,0,0,0,1.61-1.21,2.18,2.18,0,0,1,2.84-.06c.3.23.94-.22,1.13.46a3,3,0,0,0,1.12,1l.32.31c2.32.65,3.32,2.64,4.88,4.19.29.14.31.31.35.58.22.32.61.53.71,0a33,33,0,0,1,2.21-3.79,45.26,45.26,0,0,1,5.63-7.85,2.07,2.07,0,0,1,.59-.18,21.6,21.6,0,0,0,2.66.51c.45,0,1,.57,1.48,1a8.35,8.35,0,0,1,2.73,3.43,5.44,5.44,0,0,1-1.15,5c-.29.49-.77.83-1.06,1.32l-1,1.12c-2.05,3.06-4.51,5.73-6,9.23a47,47,0,0,1-2.35,4.71,1.47,1.47,0,0,1-.84.92c-.5.25-.67.28-.92-.22a4.6,4.6,0,0,1-.42-1,1.59,1.59,0,0,0-.76-.34c-.6.18-.88,0-1.23-.53-.47-.73-.64-.71-1.26-.08-.24.21-.3.4-.46.51s-.34.14-.37-.12a2.06,2.06,0,0,0-.61-1.07c-.1-.08-.36-.66-.18-.69.62-.62-.18-1.22-.06-1.59a1.05,1.05,0,0,0-.5-.38c-.77.2-.6-.44-.47-.82,0-.09.25-.12.33-.14a.59.59,0,0,1,.48.2c.05-.27,0-.53.16-.73-.18,0-.46-.11-.62,0a31,31,0,0,0-3,1.15,4.39,4.39,0,0,0-1.66.86L349,132l-3.76,2.33c-.34.14-1.12.25-.47,1.05a.41.41,0,0,1-.22.29l-2.53,2.24a14.67,14.67,0,0,0-1.24,1.25c-.69.81-1.54,1.65-2.31,2.47l-5.68,6.26a36.58,36.58,0,0,0-3.61,4,6.54,6.54,0,0,0-1.35,1.71,1,1,0,0,1-.43.15c0-.08-.12-.25,0-.26.19-.47.42-.77.6-1.33.08-.1.05-.28.12-.47-.18,0-.24.22-.4.33s-.34.14-.41.24a22,22,0,0,1,1.13-2c.64-1.07,1.47-2.08,2.11-3.24.07-.1,0-.17.05-.27l-.35,0c-.08.1-.05.27-.21.38a39.78,39.78,0,0,1-3.12,3.66,16,16,0,0,0-2.34,2.3c-.16.11-.2.47-.59.26a2.36,2.36,0,0,1,.09-.63l.31-.32c.06-.18,0-.36.11-.46a1.1,1.1,0,0,0-.51.17,38.21,38.21,0,0,0-4.7,8.07,1.54,1.54,0,0,1-.34.76c-.26,0-.74.37-.84-.32.44,0,.58-.27.7-.64l1.5-3.16c.28-.57.36-.58.14-1.53v-.09c.83-.38.25-1.28.8-1.8a4.84,4.84,0,0,0,1.43-1.81,2.13,2.13,0,0,0,.38-1c0-.09-.12-.25-.21-.24l-.72.55c.16,1.14-.93,1.56-1.18,2.31a15.39,15.39,0,0,0-1.61,3c-.5,1.49-.82,3-1.22,4.45-.61,1.33-1.31,2.68-1,4.15a1.55,1.55,0,0,1,0,.9c0,.08.11.16.12.24.08-.1.16-.11.15-.2a20.3,20.3,0,0,0,1.71-3.54c.72-1.79,2.13-3.16,3.17-4.55,0-.18.22-.3.22-.3.62.53.7-.1,1-.33.68-.9,1.26-1.78,1.94-2.59a5.61,5.61,0,0,1,1.42-1.28l-1.18,2.31c-1,1.57-1.95,3.13-2.87,4.78l-.09.55c.07-.1.33-.14.32-.23.53-.61.88-1.29,1.27-1.7a3.29,3.29,0,0,1,1-.95c.06-.18.17,0,.23-.21l.06.44a6.16,6.16,0,0,1-1.25,1.78c-.87.75-.87,2-1.64,2.82-.07.1,0,.18,0,.26.82-.47,1.28.26,2,.16a15.49,15.49,0,0,1,2-.38c.18,0,.44-.06.51-.16.89-.66,2.12-.75,2.89-1.58.31-.31.6.45.77-.2a2.15,2.15,0,0,1,.8-.65l1-.41a19.29,19.29,0,0,0,4.54-2.44,8.86,8.86,0,0,1,2.61-1c2.06-.57,3.8-2.07,5.69-3.14,2.38-1.42,4.8-3.1,7.24-4.7l.48-.43a6.82,6.82,0,0,0,1.1-1l-1.22.18a1.47,1.47,0,0,1-1.35-.7,6.27,6.27,0,0,0-2.54-1.59,5.06,5.06,0,0,1-4-3.52c-.42-1-.06-1.59,1.25-1.78l2.38-.17a31.65,31.65,0,0,0,8.11-1.17l5.35-1.14c2-.38,3.9-.74,5.88-1.21a34.5,34.5,0,0,0,4.23-1,2.37,2.37,0,0,1,2.26.3,15.54,15.54,0,0,1,2.05,1.21c.4.3.08.53-.27.58-.53.08-.33.22-.11.46a11.76,11.76,0,0,1,1,.92.3.3,0,0,1,.19.06c0-.09,0-.17.12-.37l.21-.39a1.19,1.19,0,0,1,.26.59l-.22.92c0,.26.53.55,0,.71l0,.17c.61.54.89,1.21,1.65,1.54.46.11.45.65-.15.83a18.23,18.23,0,0,1-2.07.47c-1.13.17-2.18.32-3.41.41a2.15,2.15,0,0,0-2.36,1.5c-.55,1.15-1,2.28-1.47,3.42a3.16,3.16,0,0,0-.33,2c0,.17.08.52,0,.62-1.21,2.05-2.15,4.14-3.37,6.19-1.6,2.45-2.91,5.14-4.32,7.66a1.06,1.06,0,0,0,0,.53,22,22,0,0,1-2.78,5.39,17.93,17.93,0,0,0-2.84,5.58l-.7,1.34-2,4.48c-.15.2-.17.65-.32.85-.46.51-1,.95-1.39,1.45l-2.05-1.22c-.21-.23-.09-.61,0-.79.73-1.09-.13-2.12.43-3.18-.19-.06-.4-.3-.58-.28-.83.39-1.36-.16-2-.6-.28-.14-.5-.38-.31-.94a27.49,27.49,0,0,0,.7-3.13c.17-.11.13-.37-.05-.34a.26.26,0,0,0-.35.05c-.08,0-.16.11-.31.31a.51.51,0,0,1-.76.29,1.9,1.9,0,0,1-.5-1c.1-.55.3-1-.51-1.08-.09,0-.34-.49-.35-.57a3.18,3.18,0,0,0-.34-2.36c0-.17.13-.28.11-.46.09,0,.07-.1.14-.29.2.15.28.14.3.23l.08.61c0,.17,0,.26.14.33a.42.42,0,0,0,.12-.37l.39-1,.2-.47a1.93,1.93,0,0,0,.15.42c0,.27,0,.27.22.33a.35.35,0,0,0,.13-.38.45.45,0,0,0,.12-.37c-.05-.35,0-.62-.06-1.06-.11-.7.44,0,.49-.25s-.09-.61,0-.88a5,5,0,0,1-.06-1.06c.06-.19.3-.4.33-.76l-.08-.62c-.14.29-.4.33-.48.43-.22.92-1.08,1.14-2,1l-.4-.3c-.09-.61-.48-.28-.72-.07a7.32,7.32,0,0,0-1.85,1.34,13.33,13.33,0,0,1-5.31,2.73l-1.39.82a1.91,1.91,0,0,0-.66.36,2.59,2.59,0,0,0,.71,0,1,1,0,0,0,.45,0,.46.46,0,0,1-.14.29c-1.91.9-3.86,1.63-5.76,2.62a8.14,8.14,0,0,1-4.18,1.23c-.38-.13-.51.16-.79.11s-.46-.11-.72-.07a3,3,0,0,0,.57-.35.48.48,0,0,1-.36,0,12.81,12.81,0,0,0-1.86.09c-.08,0-.12.38-.22.3s-.46-.11-.64-.08-.51.16-.68.19a3.35,3.35,0,0,1-.15-.43c.05-.27.78-.11.52-.7a1.39,1.39,0,0,0-1.48-1c-.27,0-.43.15-.6.18a5.58,5.58,0,0,1-1.78,0c-.45,0-.48-.2-.24-.41,0,0-.24-.41-.33-.4-1.3.19-2.14-.67-3.16-1-.36,0-.6-.45-.81-.69s-.69-.43-.11-.7c-.27,0-.46-.11-.5-.37-.09-.07-.71,0-.22-.32.07-.1.27-.57.44-.06.18.06.36,0,.46.11a.17.17,0,0,0,.26,0c.16-.11.14-.29.11-.46-.29-.14-.41-.39-.62-.62l-1.08,0a.3.3,0,0,1-.12-.24c-.08-.53-.4-.93-.47-1.36s-.74-.87.2-1.1a2,2,0,0,0-.19-.68,5.1,5.1,0,0,1-.41-1c-.1-.7.39.21.5-.25.16-.74.69-1.35,0-2.15-.1-.07-.21-.23-.14-.33l.15-3.32c0-.36.3-.4.67-.27s.71,0,.65-.45c0-1.52.94-2.72,1.54-4.06,1.34-2.42,2.77-4.85,4.39-7.22,1.39-2.07,3.09-3.83,4.51-5.73.46-.51,1.18-1.06.69-2-.19-.06,0-.53.4-.32.11.16.37.12.37.12.6-.8,1.39-1.45,2-2.25l1.89-2.32,2.37-2.66a5.82,5.82,0,0,0,.57-1c.76-.29.91-.49.4-1A14.47,14.47,0,0,1,335.24,124.61Zm-19.69,44.7.27,0c.43-.06,1-.15,1.19-.35.18-.65-.67-.35-.8-.6a1.52,1.52,0,0,1-.16-.51c-.11-.16-.41-.39-.62,0-.06.19-.4.33-.56.44-.23.3-1.05.77-.86.84.19.68.88,0,1.2.27Zm7.8-23.57,1.21-1.51c.83-1,1.75-2,2.57-3.13a.6.6,0,0,0,0-.37.34.34,0,0,0-.25.13,48.07,48.07,0,0,0-3.52,4,3.19,3.19,0,0,0-.5.88l.12.16A.51.51,0,0,0,323.35,145.74Zm2.43.18c-.82,1.1-1.62,2.28-2.46,3.3-.07.1.15.42.18.59,0,0,.35-.05.42-.15.2-.47.29-1.11.68-1.43.64-.54.79-1.36,1.31-2.06.08,0,.07-.1.23-.21A.48.48,0,0,1,325.78,145.92Zm4.9-17.18-.36.59.61-.09a4.61,4.61,0,0,0,.79-.65c.76-.29.91-.49.4-1C331.65,128.07,331.08,128.42,330.68,128.74Zm2.9,12,2.93-3.72a1.73,1.73,0,0,1,.3-.4c-.26,0-.53,0-.61.09l-2,2.25c-.84.92-1.6,1.83-2.27,2.73a.57.57,0,0,0-.2.48l.26,0A5.57,5.57,0,0,0,333.58,140.78ZM346,156.6l.14-.28-.27,0a22.27,22.27,0,0,0-3.12,1.78.2.2,0,0,0-.15.2c-.17,0-.16.12-.15.2l.26,0C343.71,157.83,344.88,157.3,346,156.6Zm29.34-38.26c.63,0,.9-.58,1.3-.9.17,0,.27,0,.28.13s.1.08,0,.18l-2.2,2.63c-.07.1-.34.14-.6.18.05-.28.2-.48.19-.56s0-.37,0-.54Z"/><path class="cls-5" d="M405.21,144.81a3.48,3.48,0,0,1-1.73-.28,6.72,6.72,0,0,0-2.65.11c-1.62.51-3.19.73-4.72,1.22-.44.07-.76.29-1.2.35a2.34,2.34,0,0,0-2.26,2.2c-.11.46-.4.33-.74.47-.17,0-.16.11.07.43.11.16.33.49.17.6a7.85,7.85,0,0,1-.74,2.24c0,.09-.3.4-.31.32-.91-.14-.7.72-1,1,0,.18.05.35.15.43a.78.78,0,0,0,.34-.14.47.47,0,0,0,.32-.23c0,.18.14.34.07.44a7.21,7.21,0,0,1-.36,1.21,5.08,5.08,0,0,1-.4.95l-.43,1.3c-.51-.45.32-.84,0-1.24l0-.35-.48.34c-.08.1,0,.36,0,.45l-1,2.73c-.05.27-.3.4-.46.51l.07-.72a19.1,19.1,0,0,0,1.05-3.18,22.88,22.88,0,0,0,.48-2.83.27.27,0,1,0-.52.07l0,.26c.25.5,0,.63-.42.78a2.39,2.39,0,0,1-.21-.77l-.07-.53c-.09,0-.14.29-.21.39a8.5,8.5,0,0,0-.66,1.61l-.46,1.76c-.29,1.64-.77,3.22-1.17,4.8s-1.24,3.11-1.42,4.92c0,.09-.32.23-.4.33l-.06-.44,0-.35c-.07-.44-.24-.41-.46-.11a10.53,10.53,0,0,1-.74,1.09l-.32.22-.05-.35.2-.47.13-.91c-.55-.1-.66.36-.68.81-.09.64-.63,1.16-.89,1.82a28.93,28.93,0,0,0-1.28,3.48c-.06.19-.43.69-.54.61-.29-.22-.33-.48-.22-.94a14.31,14.31,0,0,0,.22-2.8L379,168c-.16.11-.15.2-.21.38l-.62,4.28a4.06,4.06,0,0,1-.62,1.25,8.61,8.61,0,0,0-1.12,1.5c-.4.32-1,.58-1.07,1.22s-.9.57-1.31.19a3.61,3.61,0,0,1-.87-3.53,9.27,9.27,0,0,0,.52-3.81c0-.45.41-.86.52-1.32.07-.1.35-.05.44-.07s-.07.19-.05.28c-.15.2-.24.21-.23.3a3.1,3.1,0,0,0,0,.8c.55.09.47-.43.45-.6l.53-2.48c0-.09,0-.45.28-.49.53-.08.53-.08.5-.25l1.26-4.19a7.42,7.42,0,0,1,.63-1.78,14.73,14.73,0,0,0,.63-1.79,1.94,1.94,0,0,1,.71-1.26,3.74,3.74,0,0,0,.68-1.43,1.2,1.2,0,0,1-.21-.24l-.22-.32c.84-.92.56-2.22,1-3.17.11-.46.39-1,.27-1.19-.47-.83.44-.69.5-.88a7.07,7.07,0,0,0,.38-2.28c0-.17.05-.27.21-.39.42-.77.4-.94-.53-1.17-.62,0-.76-.33-.92-.84-.11-.79-.34-1.11-1-.83-.25.12-.42.15-.41.23-.19.57-.24.22-.45,0-.1-.07-.32-.4-.25-.5.25-.75-.3-.84-.84-.86s-1.08-.1-1-1.1a1.69,1.69,0,0,0-.65-1.42c-.36-.66-.43-1.1.21-1.63.42-.15.65-.45,0-.8-.08,0,0-.36.09-.64a.37.37,0,0,1,.61-.09c0,.18.37.13.46.12.93-.32,1.72-.43,2.39.54,0,.17.38.12.55.1a21.16,21.16,0,0,1,3.46-.06c.62-.09.93-.4,1-.85a10.1,10.1,0,0,1,1.75-4.53,40.18,40.18,0,0,0,3-7.82,51.58,51.58,0,0,1,2-5.72c.69-2,1.63-4.07,2.31-6.12.31-.31.24-.84.35-1.3a.49.49,0,0,0-.14-.33c-.09,0-.16.11-.31.31,0,1-.81,1.18-1.33,1.88-.07.1-.26,0-.51.16a.73.73,0,0,0,.1-.54l1.84-4.46a2.61,2.61,0,0,0,.43-1.39c0-.09-.3-.23-.3-.23-.51.17-.69.19-.52-.46a15.45,15.45,0,0,0,1.46-4.66,21.5,21.5,0,0,1,.4-2.19,1.15,1.15,0,0,1,.32-.85c0-.17.32-.23.44-.06a3.16,3.16,0,0,1,.55.72c.61.53.69.52,1.13-.17.21-.38.26-.66.7-.1.21.24.52.55.78-.11a1.25,1.25,0,0,1,.37.12c.5.37.93.85,1.43,0,1.24.62,2.77.13,4.1.65.08,0,.1.08.1.08a13.29,13.29,0,0,0,3.54,1.71,4.58,4.58,0,0,1,2.45,2.14c.25.5.32,1-.25,1.37-.83.39-.9,1.2-1.14,2a7.6,7.6,0,0,1-1.28,2.85,26.66,26.66,0,0,0-2.48,4.37c-.34.76-.88,1.28-1.23,2a2.81,2.81,0,0,0-.47,1c-.23.3-.11.47.17.6,0,.18,0,.18,0,.28-.28.48-1.23.71-.49,1.49-.86.22-.56,1.06-.86,1.46a4.6,4.6,0,0,0-1,2.55,4.86,4.86,0,0,1-.6,1.42c-.05.27-.3.4-.27.57-.11,1.71-1.14,3.19-1.81,4.72s-1.14,3.19-1.66,4.51c-.18.56.09.61.53.55l3.11-.63,1.46-.39,8.14-1.54c.87-.13,1.72-.43,2.58-.64,1.82-.35,3.55-.7,5.18-1.11.26,0,.78-.11.92-.4.48-1,.87-2,1.34-3,0-.37.09-.64-.33-.4a.93.93,0,0,1-.42.15c0-.09-.11-.16,0-.35,1-2.37,2.07-4.75,3-7.38a26.88,26.88,0,0,0,1.4-5.1,21.28,21.28,0,0,1,1.29-4.64c.18-.56,1.54-1,2.27-.86a1.17,1.17,0,0,1,.47.11,4.93,4.93,0,0,0,1.22.44c.53,0,.93-.31,1.29-.28.64.09,1.42.6,1.84.36.8-.56,1.17.1,1.65.38a7.07,7.07,0,0,0,3-.16,2.34,2.34,0,0,1,1.88.08,1.57,1.57,0,0,0,1.35-.46,2.68,2.68,0,0,1,1.55-.41c.62,0,1.25,0,1.51.58a2,2,0,0,1-.17,1.9c-.54.61-1,1.21-1.53,1.74a9.36,9.36,0,0,0-2.41,3.64,34.38,34.38,0,0,0-3.16,7.67,16.78,16.78,0,0,1-1.58,4.41c-.23.3-.33.85.42.48.32-.23,1.06-.69,1.09-1.05a.37.37,0,0,1,.22-.39c0,.09.19.15.39.3s.15.42.34.48.46.11.66.26a2.25,2.25,0,0,0-.27-.67.62.62,0,0,0-.14-.34.57.57,0,0,1,.36,0l1.39,1c0,.09.12.25.05.35-.19.56,0,.71.56.81.27,0,.39.21.25.49s-.37.5-.59.27c0-.18-.11-.17-.11-.17l-.63-.08.32.4c.71.6.73.69.05,1-.84.3-.59,1.42-1.45,1.63l.09.61c.64.71,1.42.6,2.24.75A9.13,9.13,0,0,1,442,135c.27,0,.48.2.6.45a.74.74,0,0,1-.48.34l-1.35-.08a1.27,1.27,0,0,0-1.17.53c.9.67-.16.73-.39,1a4.44,4.44,0,0,1-1.1,1,6.32,6.32,0,0,1-1.36.46,18.71,18.71,0,0,1-4.43.11,3.39,3.39,0,0,0-1.86.09,4.57,4.57,0,0,0-2,2.33c-.82,1.73-1.44,3.6-2.17,5.31a9.1,9.1,0,0,0-1.53,4.22c-.82.48-.49,1.5-.93,2.19s-.56,1.59-.9,2.35a20.79,20.79,0,0,1-1.05,2.56c-.42.77-.66,1.61-1.08,2.38l-1,2.28-1.16,2.4a4.76,4.76,0,0,0-.71,1.26c-.18.56-.28.49-.51.16-.17,0-.41.24-.38.41-.15.83-.46,1.76-.52,2.57,0,.62-.45.6-.72.55a2.48,2.48,0,0,1-2-2.65c0-.71,0-.8-1.09-.73-.26,0-.61.09-.5-.37l0-1.52c.07-.73.33-1.39.4-2.2.08-.63-.14-1-.72-.61-1.18.44-1.77-.54-2.69-.76-.17,0-.2-.15-.3-.23-.62,0-.73-.16-.61-.53.42-1.4.84-2.79,1.36-4.12a46,46,0,0,0,2.59-7.32,16.61,16.61,0,0,1,1.34-3c.21-.38.27-.57-.37-.66a.62.62,0,0,1-.47-.82c.17-.65-.18-.6-.61-.53l-1.92.27v.09C408.63,144.4,406.88,144.66,405.21,144.81Zm-27,17.37a8.73,8.73,0,0,0,.5-1.41c.14-.29.65-.45.31-.94a2.6,2.6,0,0,0-.59.8,7.16,7.16,0,0,0-.67,1.52c-.08.1,0,.18.22.33A.43.43,0,0,0,378.18,162.18Zm5.63,2.65.66-2.23c0-.09-.1-.08-.19-.06-.26,0-.74,1.62-.65,2.23v.08c0,.09,0,.09.12.25C383.83,164.92,383.83,164.92,383.81,164.83ZM390.35,151l1.07-2.47.17-1.27c-.84-.23-.61.71-.82,1.1a16.9,16.9,0,0,0-.94,2.72c0,.08.11.16.12.25l.18,0C390.2,151.17,390.36,151.06,390.35,151Zm2-22.64-.42.77a8.19,8.19,0,0,0-.28,1.11c-.05.28,0,.26.3.23.68-.19.77-.21.58-1.51C392.57,128.84,392.43,128.5,392.4,128.33Zm5.53,1.24c-.09,0-.12-.16-.12-.16a.47.47,0,0,0-.32.23c-.52,1.32-1.05,2.55-1.49,3.86a3.79,3.79,0,0,0,0,1.07l.76-.91c.09,0,.05-.27.05-.27-.49-.91.31-1.56.55-2.31Zm9.54,7.52c-1,.24-2,.55-3.1.72a10.57,10.57,0,0,0-3.15,1,28,28,0,0,0-3.91,1.28c-.08,0-.24.12-.33.14a1,1,0,0,0,.46.11,119.42,119.42,0,0,0,12.4-2.25c2.22-.68,4.3-1.69,6.68-1.86a1.25,1.25,0,0,0,1.24-.62c.2-.48.05-.9-.38-.84a3.12,3.12,0,0,0-1.72.43,14.37,14.37,0,0,1-2.56.82c-1,.14-2,.29-3,.51a13.74,13.74,0,0,1-2.58.65Zm21.14-9.57c-.36,0-.56-.18-.55-.09-.27.57-.72,1.17-1.07,1.84l.1.08Zm5.1,6.92,0,.17a8.14,8.14,0,0,1,1.44-.56,6.72,6.72,0,0,1-1.44-.06l-.35,0-1,.5c.26,0,.71,0,1,0Z"/><path class="cls-6" d="M449.63,120.82c.27-.57.63-1.16,1.05-1.93a1.13,1.13,0,0,1-.67-.35,3.36,3.36,0,0,1,.92-1h-.09c.55-1.77,1.2-3.38,1.83-5.16.45-1.22.87-2.62,1.32-3.84a3.37,3.37,0,0,1,.68-1.44c.54-.52.53-1.23.3-2.18-1.68-.55-3.47-1.27-5.44-2-.3-.22-.63-.62-.83-.77-1.17-.72-2.36-1.52-3.53-2.24a6.93,6.93,0,0,1-2.5-3.11c.17-.65.2-1.1.31-1.56,1.17.1,2.25-1,3.55-.7a33.76,33.76,0,0,0,7.92-.61,20.24,20.24,0,0,0,4-.93,5.16,5.16,0,0,0,1.67-.78,1.33,1.33,0,0,1,1.39-.2,5.73,5.73,0,0,0,4.07-.23c1.25-.54,2.82-.77,4.35-1.26,1.9-.45,3.68-1.07,5.54-1.69,2.13-.67,4.34-1.43,6.49-1.92,1.81-.44,3.93-.57,5.67-.83a14.77,14.77,0,0,1,2.79-.4,2.93,2.93,0,0,1,2.68,1.3c.2.15.69.43,1.27.8a8.77,8.77,0,0,0-1,.58c.67.35,1.65.92,2.42,1.34,0,.18-.06.19,0,.28l-2.44.35c1,.57,2.06.68,2.26,2.08a15,15,0,0,0-2.79,1,6,6,0,0,0-3,0c1.95,1.14,4,2.1,5.91,3.24a6.38,6.38,0,0,0-1.36.46,7.3,7.3,0,0,1,1.46.86c-1,.41-2.12-.5-2.68.56a4.3,4.3,0,0,0-1.89-.16c-1.66.24-3.44.23-5.1.47a49.43,49.43,0,0,0-5.1,1c-2.1.3-4.07.85-6.27,1a9.15,9.15,0,0,0,2.09-.92c-.09,0-.11-.16-.19-.07a20.74,20.74,0,0,0-3.26.84c-1.27.45-1.74,1.49-2.31,2.47-.7,1.34-1.22,2.67-1.91,4a65.09,65.09,0,0,1-3.05,6.59c-.6,1.42-1.32,2.59-2,3.94-1,.14-.55-.72-1-1.19-1.34,1.26-1.32,3.21-2,4.82a11.94,11.94,0,0,0-1.49,5c.22-.3.26-.66.57-1,.44.55.3.84,0,1.33-.23.21.29.76.47,1.36a4.17,4.17,0,0,0-.85-.33c-1.64,2.82-3.45,5.67-4.33,9.44.39-.41.48-.42.55-.52.25-.12.29-.49.37-.5l.35-.05a13.5,13.5,0,0,0-.7,2.51c-.77.2-1.07.6-1.38,1.53-.65,2.32-1.45,4.75-2.15,7.26-.08.1,0,.26.07.52.21-.38.51-.78.57-1a.73.73,0,0,1,.38.12c-.3,1-.67,2.15-1.13,3.28s-.52,1.32.38,2c-.15.19-.11.46-.26.66a2.11,2.11,0,0,0-.26.66l.7-.1a4.8,4.8,0,0,1-.32,2.71,6.57,6.57,0,0,0,.53,3.66,4.15,4.15,0,0,1-1.14,1.33,6.8,6.8,0,0,1-1.45,1.1,9.15,9.15,0,0,1-2,.74,1.85,1.85,0,0,0-1.79.52c-1.1-.19-2.29-.46-3.39-.66a2.32,2.32,0,0,0-2.43-2c-.42,1.4-.69,1.43-2.42,1.15a4.62,4.62,0,0,1,.78-.74,2.44,2.44,0,0,1-.95-2.26c.45-1.22,0-2.41.37-3.62a23.54,23.54,0,0,0,.64-2.31c.62-1.88,1.15-3.73,1.77-5.6a19.17,19.17,0,0,1,.39-2.2c.28-.57.77-.82,1.25-1.25a9.1,9.1,0,0,1,.69-2c.7-1.34,1.58-2.63,2.73-4.49a22.67,22.67,0,0,1,.88-2.53c-1.56.32-1.42,1.9-2.21,3.17a14.78,14.78,0,0,1,1.43-4.84c.1.08.37,0,.47.11a7.25,7.25,0,0,0,1.5-.66c1-2.37,2.05-4.93,3.2-7.41a13,13,0,0,0,.93-2.18,33.86,33.86,0,0,0,1.52-4.23,3.84,3.84,0,0,0-.2-1.39c.58-.89,1.34-1.8,2.07-2.89a2.25,2.25,0,0,1-1.14-.54c-.3.4-.35.67-.59.88a11.36,11.36,0,0,1-.65,2.24c-1.2.35-1.43,1.18-1.73,2.21a8.19,8.19,0,0,0,1-1.4c0,1.87-1.09,2.91-1.52,4.22,0,0-.11-.16-.2-.14.11-.47.29-1.11.41-1.49-.47.43-1,.85-1.49,1.38l.2.15a3,3,0,0,0-.55-.1,7,7,0,0,1-.85,1.54l0,.09C448.47,122.68,449.24,121.86,449.63,120.82Zm.15,2.3a2.34,2.34,0,0,1,.39.83l.61-.09a26.68,26.68,0,0,0-1.13,2.66l-1.22.18c.1-.55.27-1.2.3-1.65a5.08,5.08,0,0,0-.86,2.08c-.31-.31-.54-.63-.46-.73.41-.86.23-2.08,1.33-2.51l0-.09c0,.37,0,.8,0,1.25A7.54,7.54,0,0,1,449.78,123.12Zm6.05,5.44c-.09,0-.37,0-.38-.12-.68,1.43-1.46,2.79-2.32,4.25A7.11,7.11,0,0,0,455.83,128.56Z"/><path class="cls-7" d="M82.83,307c.48-.2.84-.38.8-.63.34-2.09,2.07-3.37,3-5.16.71-1.25,1.25-2.86,2.51-3.81.68-.61.61-2,1.25-2.87A22,22,0,0,0,92,292.79c-.66-1.06.28-.68.89-.9,1.06-.66,1.77-.13,2.4.67s1.11.61,1.83.25c.35-.18.59-.34.67-.61.75-1,.77-.88.94.25,0,.12.93.25,1.48.55l.54.18c-.13,0-.34.3-.47.32-1,0-1.66.88-2.35,1.37-.13,0-.08.39-.06.51.38-.05.31,1.24,1.11.61,1.93-1.68,3.58,0,5.21.65,2.19,1,1.47,3.11,1.84,4.72l-2.57,3.44c-1,1.29-2.07,2.47-3,3.64a20.15,20.15,0,0,1-1.79,1.79,6.74,6.74,0,0,0-2,2.6c-.93,1.54-1.42,3.4-2.64,4.73-1.78,1.79-3.12,4-4.76,5.93-1.41,1.74-3.21,3.41-4.87,5.18l-4.52,5-4.05,3.79a19.16,19.16,0,0,0-1.53,1.75c-1.59,2.28-3.61,3.34-6.24,2.83-2.13-.59-4.22-.92-6-1.94a6,6,0,0,0-2.37-.43c-.91-.12-1.93-.1-3-.33s-1.81-1-2.87-.35a10.35,10.35,0,0,1-3.62-2.92,52,52,0,0,1-2.51-5,26.1,26.1,0,0,1-1.39-5.16,61.79,61.79,0,0,1-.5-7c0-.77-.27-1.88,1-2.19.13,0,.32-.43.32-.43-.95-1.27.3-2.34.26-3.49.23-.16-.16-.23-.32-.46-.91-.12-.91-.12-.47-.57a16.21,16.21,0,0,0,.67-5.08c.09-1.17.46-3,1.14-3.62,1-.92,1.3-2.49,1.74-3.83.41-1.6.59-3,1.1-4.76l.32-1.33a1.47,1.47,0,0,0,.61-1.11,12.5,12.5,0,0,1,2-5.41c.24-.16.29-.68.61-1.11,0-1.66.85-2.93,1.67-4.33l.77-1.77a25.68,25.68,0,0,1,2.31-5.2c.71-1.25,1.68-2.54,2.41-3.67a31.23,31.23,0,0,0,2.6-4.08c1.37-2.89,3.83-5.29,4.47-8.83.87-1,1.86-2.19,2.75-3.09.32-.43,1.19-.55.57-1.35.44-.45,1.16-.81,1.42-1.62l1.45-1.49c.29-.68.61-1.11,1.52-1,.27.09,1.59-1.39,1.51-1.89.13-.91.2-1.3,1.2-1.45s.77-.88.43-1.47c0-.25.19-.41.17-.53.27.09.42.19.45.44a4.15,4.15,0,0,1,.18,1.26c0,.12.43.32.94.24.25,0,.32-.43.71-.36a11.92,11.92,0,0,1,3,.71c.41.2.72.54,1.22.47a7.25,7.25,0,0,1,2.2.19c2.69.89,5.71,1.47,8,3.43a22.55,22.55,0,0,0,3.87,2c.45.44.75-.11,1-.52,1.07-1.44,2.08-3.25,3.26-4.82,1.52-1.88,3-3.77,4.58-5.4a28.6,28.6,0,0,1,3-2.47c.23-.17.75-.11,1.25-.19,1.43.18,2.87,1.25,4.42.51-.11.15.07.5,0,.65a1,1,0,0,1-.43.57,3.53,3.53,0,0,1,.64,0c.61-.22,1.16-.81,1.63-.24s.59,1.45-.25,1.82c0,.13.2.49.33.47a2.71,2.71,0,0,1,2.94,3.53,9.59,9.59,0,0,1-1.52,2.78,13.38,13.38,0,0,0-3.75,7.58,4.86,4.86,0,0,1-1.07,2.32A128.91,128.91,0,0,0,108.61,275c-.2.41-.56.59-.65.86-.69,1.38-2.1,2.22-2.08,4.14.08,1.39-1,2.83-1.8,4.35a3.47,3.47,0,0,1-1.73,1.27c-1.79,0-3.61.65-5.49,0-2.31-.94-4.58-1.63-6.88-2.45-.82-.39-1.75-.64-2.43-.93s-1.72-.39-2.06-1c-.5-.82-1.15-.85-1.7-1.15a1.34,1.34,0,0,1-.15-1c0-.12.43-.57.41-.69.25-.94-.77-.92-1.11-1.5a8.83,8.83,0,0,0,1.82-.65l1.2-1.45a1.45,1.45,0,0,0,.87-1c.11-.14,0-.89-.12-.87-1-.5-.53-1-.37-1.61a6.52,6.52,0,0,0,.72-1.26c.85-1.14,1.73-2.16,1.13-3.61a2.09,2.09,0,0,1,.18-.54c.56.3.48-.2.29-.68a4.39,4.39,0,0,1-.86.25c-1,.52-1.73,1.28-2.93.94-.4-.07-1.08.54-1.4,1l-4.87,6.07a32.54,32.54,0,0,0-2.44,4.32c-.12,0-.61.22-.73.24-1-.38-1-.38-1.38.2-1.67,2.54-3.26,4.81-3.47,7.78a4.09,4.09,0,0,1-.68,1.51A23.92,23.92,0,0,0,68.73,290c-.21.29-.54.72-.37,1,1,1.89-.59,3-1.16,4.38-.39.83-1.3,1.6-1,2.71-1.09,1.31-.6,2.9-1,4.24-.69,1.38-1,3.08-1.65,4.46-.5,1,0,1.91-.23,2.84s-1.14,1.83-1.15,2.6c-.34,3-.42,5.94-.63,8.91a23.63,23.63,0,0,0,.19,3c0,1,.14,1,1,.62a22.84,22.84,0,0,0,7.11-6.52c.11-.15.21-.29.34-.31,0,.13.2.48.09.63A22.25,22.25,0,0,1,69,320.8a.44.44,0,0,0-.07.39l.5-.07c1-1,2.28-1.87,3.28-2.91.32-.43.41-.69,0-1-.18-.36-.61-.68-.64-.93-.08-.5.24-.93.3-1.45.07.5.12.87.27,1,.7.41,1.09,1.37,2.2,1.09a2.12,2.12,0,0,0,1.93-1.69A4.52,4.52,0,0,1,80,312c1.68-.75,2.19-2.49,3.39-3.94.1-.14-.11-.75-.31-1.23Zm-7-31.58c0,.13.16.23.18.36l.12,0a9.78,9.78,0,0,0,1.59-2.27l0-.25a1.7,1.7,0,0,0-.48.19A18.54,18.54,0,0,1,75.82,275.45Zm6.65,31.76c-.07.39-.1,1-.23,1.05-.77,0-.36-.71-.56-1.19l-.12-.88c.12,0,.46-.32.6-.21a.66.66,0,0,1,.42.19,2.56,2.56,0,0,1,.25.86l.23-.16C82.7,307.05,82.58,307.07,82.47,307.21Z"/><path class="cls-8" d="M157,320.17a2.09,2.09,0,0,1-.64.86c-.73,2-2.59,3.32-4.16,4.82-1.23,1.21-2.26,2.89-3.62,4.11a39.37,39.37,0,0,1-8.29,6.31,51.18,51.18,0,0,0-5.75,3.52,1.64,1.64,0,0,1-2.31,0c-.55-.31-1-.63-1.54,0-.08.27-.89,0-1.32-.32-.81-.26-1.29.83-2,.17s-1.31-.19-2,.17a1.88,1.88,0,0,1-.79-.15l-.65-.92a8,8,0,0,0-2.43-2.72c-1.13-.73-1.87-2.28-2.8-3.43-.33-.46-.4-1-.72-1.43-.14-.1-.75.11-1.15,0,.26.86-.26.81-.69.49L113.5,329c-.57-.43-1-.75-1.59-.41s-.64.86-1.09,1.31a6,6,0,0,1,.25.85l.13.88a2,2,0,0,1-.16.66c0-.25-.18-.35-.2-.48L109.4,329c-.18-.36-.62-.8-.55-1.2.33-2.09-1-4-1.39-6.06-.28-1.87-.71-4-1.11-5.84a16.83,16.83,0,0,1-.09-7.66c.53-4.3,1-8.71,2.75-12.8,1.26-2.74,2.13-5.55,3.25-8.4l.59-1.23a.75.75,0,0,0,.41-.7c-.77-.91-.13-1.77.42-2.36,1.75-3.83,4-7.49,5.67-11.18,1-2.18,2.08-4.13,3.19-6.21.6-1.11,1-2.19,1.54-3.42s1.13-1.06,2-1.06l.63-.09c-.14-.11-.41-.2-.47-.57s-1.09-.48-.72-1.43.14-1.69,1.5-2c.75-.11,1.18-.68,1.45-1.49a26.65,26.65,0,0,1,2.08-3.24c0-.13.22-.29.31-.56,1-3.59,3.31-6.23,5.43-9.22,1.18-1.58,3-2.35,4.47-3.59,2-1.83,4.84-2.75,7.28-4.38a16.22,16.22,0,0,1,3.76-1.44l2.59-.63c.11-.15.38-.06.5-.07-.1.14-.09.26-.32.43a.12.12,0,0,1-.11.14c-.23.16-.42.57-.78.75a1.65,1.65,0,0,0,1.55.16,3.9,3.9,0,0,1,1.08-.54c2.61-1.4,5.15-.62,7.73.41-.27.81.3,1.23.88,1.66,1,.63,1.81,1.91,3.09,1.09a1.46,1.46,0,0,1,1.11.6,2.51,2.51,0,0,0,2.08,1.11c.63-.09.65,0,1.06,1.12.13,0,0,.13,0,.13,1.45.3,1.5,1.57,2,2.52a2.75,2.75,0,0,0,1.73,1.4,4.83,4.83,0,0,1,2,.73,1.84,1.84,0,0,1,1.49,2.34c-.16,1.56.54,2.87,1.26,4.3a19.68,19.68,0,0,1,1.46,4.77,37.35,37.35,0,0,1,.35,5.06,2.43,2.43,0,0,0,.61,1.57c1.28,1.74.94,3.83.59,5.8-.5,3.65-1.4,7.1-2.16,10.66.05.38-.31.56-.27.81-.16.66-.28.68-.64,0-.31-.34-.59-.56-.77,0-1.14,4.51-4.06,8.13-5.88,12.36-1.14,2.72-2.44,5.21-3.61,7.68a12.37,12.37,0,0,0-.61,2L168.65,303c-.48,1.09-1,2.18-1.57,3.29-.09.27-.46.33-1,.53-.5-.83-1,.14-1.19.55a18.08,18.08,0,0,0-3.16,3.78c-.46,1.22-1.87,2.07-1.89,3.73a7.57,7.57,0,0,0-2.62,3.06.46.46,0,0,1,.27.09l2.41-2.78-.08-.5,1.57-1.5a3.7,3.7,0,0,1,1.2-.56A20.74,20.74,0,0,1,157,320.17Zm-37.53,18c-.5.07-1-.11-1.53,0a3.75,3.75,0,0,0-.06.52c.15.11.18.36.45.45l-.75.11-2.87-2.14s0-.13-.07-.5c.16.23.25,0,.41.19,1.58,1.18,3.28.55,5,.3l2,0c-.23,1.05-1.3.7-2,1.05Zm.28-21.9c0-.25-.22-.61-.27-1a3.19,3.19,0,0,0-.48,1.09c0,1.27.13,2.66.29,3.79,0,.13.16.23.31.34l.17-.54c-.07-.5-.43-1.21.29-1.57.12.87.13,1.77.25,2.64l.13.88c.07-.39.28-.68.25-.93a27.46,27.46,0,0,0,.24-4.51c.11-.14-.06-.37-.2-.48l-.21.29c-.41.69.38,1.73-.46,2.11Zm43.37-66.63a.79.79,0,0,0-.71-.53c-.63.09-1.67,0-2.1.56s-1,.39-1.69.63c-2.88.41-4.38,1.53-5.9,4.3a1.33,1.33,0,0,1-.93.65,1.43,1.43,0,0,0-1,1.81c.18.36.07.5-.11,1-.57.46-.58,1.23-1.44,1.48-.89,2.69-2.07,5.16-1.4,8a15.28,15.28,0,0,1,0,4.22c0,2.31.61,4.26.67,6.43a5.48,5.48,0,0,0,.58,1.32c.68,1.18,1.27,2.63,1.83,3.82a3.16,3.16,0,0,1-.12.92,1.08,1.08,0,0,1-.59-.56,7.65,7.65,0,0,1-1-2.16,5.54,5.54,0,0,0-1-.75c.05.38,0,.9.16,1.13a2.68,2.68,0,0,1-.74,3.68,2.51,2.51,0,0,0-1,1.29c-.38,1-.72.36-.88.13-.45-1.34-1-2.54-1.58-3.86a4.63,4.63,0,0,0-.24-.73c-.35.18-.6.21-.69.48-.7,1.38-1.56,1.63-2.63.38a21,21,0,0,1-1.67-2.69,7.73,7.73,0,0,1-1.13-1.63c-.22-.61-.38-.84-.79-.14l-2,3.22c-.2.42-.52.85-.25.93.5.83-.3,1.46-.6,2L130,293.54l0,.25a4.33,4.33,0,0,1-1.48,3c-.11.14-.32.43-.2.41.81,1.16-.32,1.33-.89,1.79l-1,1.56s-.07.4.07.5c1,.63.42,1.09-.1,1.93-.71,1.26-1.71,2.3-1.08,4,.16.23-.29.68-.36,1.07-1.32,1.47-1.53,3.55-1.77,5.37a13.83,13.83,0,0,0-.3,3.24,16.32,16.32,0,0,0-.45,5.69,13.32,13.32,0,0,0,1.78,5.24c.14.1.43.32.55.3s.58-.47.56-.59c0-1.54,0-2.94-.15-4.58a.94.94,0,0,1,.62-1c0-.12.11-.14.21-.28a5.13,5.13,0,0,1,.22.6l-.38,4.41a1.48,1.48,0,0,0,.34.59c1.25-.19,2.55,0,3.39-1.26a2.24,2.24,0,0,1,1.27-1c1.84-1.41,4-2.37,5.54-4.12,1.3-1.6,2.64-2.94,4-4.41l4.69-5.54a56.85,56.85,0,0,0,9.5-15.57,5.43,5.43,0,0,1,1.09-1.31,6.46,6.46,0,0,0,2.07-3.36c.23-.16.19-.41.41-.7,2.19-2.49,2.61-5.75,3.86-8.62.18-.53.05-1.41.19-2.2.69-2.27,1.24-4.65,2.19-7s-.34-4.94,1-7.43a4.11,4.11,0,0,0,.55-2.38,37.51,37.51,0,0,0,.26-5.27c-.15-1,.21-2.08-.54-2.86a2.82,2.82,0,0,1-.3-2c.13-.91-.32-1.36-.55-2.09a.47.47,0,0,1-.17-.23c-.1.14-.33.3-.32.43a33.46,33.46,0,0,1,.17,3.81c0,.25-.3.55-.5,1l-.1-.75c-.11-.75,0-1.53-.08-2.29A7.84,7.84,0,0,0,163.07,249.62Zm-38.93,67.26,1.48-2.13.37-.05c0,.25.18.35.07.5a3.57,3.57,0,0,0-.58,3,7.32,7.32,0,0,1-.57.47l-.72.36,0-.38A6.64,6.64,0,0,1,124.14,316.88Zm6.81-57-.58-1.32-.75,1c0,.64-.33,1.2-.37,1.84l.13.88c.09-.27.43-.57.52-.84Zm10.55-9.2c0,.12-.23.16-.23.16a16.75,16.75,0,0,0-1.29,1.72,5.94,5.94,0,0,0-.17,1.43c.34-.3.82-.5,1.12-1.06a11.12,11.12,0,0,0,.79-1.64A2.54,2.54,0,0,0,141.5,250.71Zm4.33,71.21c.66-.74,1-1.56,1.71-2.3,0,0,0-.25,0-.37l-.25,0a15.48,15.48,0,0,0-1.72,2.3c-.23.16,0,.25,0,.25s.14.1.18.35Zm4.33-.12a.46.46,0,0,0-.4-.07,5.94,5.94,0,0,0-.9,1.66c-.26,0-.2.41-.18.54.23-.16.35-.18.44-.45a4.38,4.38,0,0,0,1.11-1.18c.13,0,.34-.31.34-.31S150.28,321.78,150.16,321.8Zm4.3-10-4.72,7.08c0,.12-.11.14-.09.27s.52.05.63-.09a48.18,48.18,0,0,0,4.4-6.65c.09-.27.32-.43.62-1l-.43-.32Zm-3.62-58.4a2.25,2.25,0,0,0,.86-.25c.7-.48.88-1.92,2.2-1.6,0-.12,0-.52-.07-.5a2.55,2.55,0,0,0-3.41,2C150.67,253.08,150.84,253.44,150.84,253.44Zm12.08,57.69,2-1.83c-.16,1.55-1.44,2.38-2.3,3.53C162.82,312.16,162.75,311.66,162.92,311.13Z"/><path class="cls-9" d="M227.89,310.52a54.81,54.81,0,0,1,1.35-5.7c.16-.66.16-.66-.36-.71-1-.11-1.86-.5-1.42-1.84,0-.13,0-.25,0-.25-.43-.32-1.2.56-1-.62,0-.13-.59-.56-.88-.77-.48-.7-1.07-1.25-.32-2.25.3-.56.73-1.13-.26-1.76l.32-.43c.52-.84.77-1.77-.34-2.38-.29-.21-.07-.5.1-1a5.56,5.56,0,0,0,0-1.54.79.79,0,0,0-.2-.49c-1.24-.58-1.56-1.05-.65-1.82.82-.5.78-.75.55-1.49a11,11,0,0,0-.56-2.09,4.81,4.81,0,0,0-.63-2.59c-.72-.53.39-1.72-.7-2.2.71-1.25-1-2.29-.53-3.63a3.17,3.17,0,0,0-.67-1.95c-1-.87-.93-2-.72-3.22a24.12,24.12,0,0,0-.17-2.91c0-.64.16-1.56-.75-1.68a.42.42,0,0,1-.27-.09c1.32-1.47-.6-3.24.44-4.92.51-.84-.17-2-.32-3a.44.44,0,0,0-.17-.36.79.79,0,0,1-.06.52c.06.38-.05.52,0,.77a1.33,1.33,0,0,1-.36-.72c-.24-1.62-.37-3.39-.73-5-.31-1.24-.74-2.45-1.19-3.79l-.29-2-.33-2.25c0-.13-.16-.23-.18-.36a.27.27,0,0,0-.21.29c-.73,2.92-1.58,5.85-2.29,8.9-.28,1.57-1,3.07-1.37,4.67l-2.07,6.82c-.55,1.48-1.16,2.59-1.6,3.94-1.25,3.76-2.21,7.73-3.45,11.49-.67,2.4-1.85,4.87-2.63,7.41a35.29,35.29,0,0,0-.9,3.46c-.45,1.34-.75,2.79-1.07,4.11a5.63,5.63,0,0,1-1.07,1.44c-.23.16-.61.21-.12.91.14.11-.14.79-.38.95-.69.48-1.39,1-.72,2-1.22.43-.79,1.65-1.05,2.45a7.15,7.15,0,0,0-.43,3.26,11.17,11.17,0,0,1-1.34,5.69c-.56.6-1.54.87-.86,2a1.59,1.59,0,0,1-.59.35c-1.23.3-2.57.75-3.91,1.2-.73.24-1.16-.08-1.84-.37-.33-.46-.83-.39-.26-.86a4.82,4.82,0,0,0,1-2.18l.36-1.08a2.3,2.3,0,0,0-.79.76,3.26,3.26,0,0,1-1.11.29c-.62.09-1.43-.18-1.77.13-2.14,1.07-4.32.11-6.58.44-1.39.07-1.93-1-2.81-1.76a1.49,1.49,0,0,1,0-.65.48.48,0,0,0,.36-.18c2.41-1,3-3,3.57-5.37.9-4.35,2.05-8.74,3.33-13.14l2.15-8.11c.67-2.4,1.18-5,2.63-7.41.82-1.4.94-3.21,1.47-4.82.78-2.54,1.71-5,2.63-7.41l1.83-5c1.41-3.53,2.51-7.4,4-10.94,1.21-3.12,2-6.43,3.2-9.67.05-.52.37-1,.3-1.45-.29-1.11.6-2,1-3.08.43-.57.37-1-.33-1.36-.14-.11-.21-.61-.25-.86s.07-.39.2-.41c1.12-.16,1.14,0,1.52-1,.28-1.57.88-2.68,2.51-2.92a1.63,1.63,0,0,0,1.09-1.31,21.07,21.07,0,0,1,1.28-3.51c.05-.51.3-.55.59-.34a.94.94,0,0,1,.61.68c.2.49.16,1.13.34,1.49.17,1.12.43,1.21,1.44,1.07.85-.26,1.18-.69.71-1.26a13.43,13.43,0,0,0-1.42-2.73,9.55,9.55,0,0,0-.58-1.33c-1.27-1.73.7-2.27.89-3.57a2.3,2.3,0,0,0,.73-.24c.25,0,.84-.38.83-.5a1.93,1.93,0,0,1,.71-2.15c.32-.43.21-1.18.33-1.2a23,23,0,0,1,2.92-.17,2.27,2.27,0,0,1,1.66.91,3.48,3.48,0,0,0,3.48,1,6,6,0,0,1,5,1.31c1.62,1.43,3.75,2.91,3.9,5.7a13.58,13.58,0,0,0,1,5c.59,1.45.47,3.26.72,5,.22,2.4.36,5.06.7,7.44a3.22,3.22,0,0,1-.26,1.7c-.5,1.86-.75,3.69.38,5.31,0,.25.09.63,0,.65-.84,1.27.34,2.38-.14,3.47,0,.25.18.36.2.48l.47-.32a6.55,6.55,0,0,1,.19-1.31c0-.25.07-.39.41-.7,0,.25.18.36.22.61s.32.46.44.45c1.51-.22,1.78.76,1.69,1.92,0,2.69,1.23,4.94.86,7.68-.2.41.41,1.09.5,1.71.06.38.69,1.18-.28,1.58-.13,0-.09.27,0,.52a4.81,4.81,0,0,1,1.1,3.16,15.52,15.52,0,0,1,0,2.56c.06.38.2.48.24.73.21-.28.32-.43.44-.45a5.44,5.44,0,0,1,.45-.44c-.33-1.36,1.09-2.21,1.16-3.5a1.69,1.69,0,0,1,1-1.93c.59-.34.7-1.38,1.25-2a1,1,0,0,1-.36-1.61,18.6,18.6,0,0,1,1-2.18,3.23,3.23,0,0,1,.48-1.1c.3-.55.5-.07.66.16a6.39,6.39,0,0,0,.73-2,19.82,19.82,0,0,1,1.53-3.54,21.63,21.63,0,0,0,1.14-5.41,1.87,1.87,0,0,0-1-.75l-.43.57a7.5,7.5,0,0,0-.4,1.6l-.27.8c-.2-.48-.74-.66-.75-.78.46-1.22-.28-2.77,1-3.73a2,2,0,0,0,.78-2.54c-.48-.69,0-.64.27-.8s.57-.47.39-.83c-.52-1.84.69-3.17,1.12-4.63a57,57,0,0,1,1.93-6c.31-.55.27-.8-.36-.71a.41.41,0,0,1-.43-.32,4.69,4.69,0,0,1,.07-1.29c0-1.54.14-1.68,1.64-1l.67.16-.13-.87c-.54-1.07-.43-1.22.84-1.27,1,0,2,.47,2.57-.76a3.39,3.39,0,0,1,1.11-.29c2.31.05,4.71-.17,6.64,1.72.88.77,1.95,1.12,3,1.87l1.31,1.09a3.1,3.1,0,0,1,.33,4c-.82,1.4-1.59,3.17-2.39,4.7a2.69,2.69,0,0,0-.26,2.59c0,.12,0,.52-.18.54-2.25,1.22-2.25,1.22-2.73,3.2-.05.52-.12.92-.48,1.1-1.09,1.31-1.34,3.13-1.72,4.85l-.56.59-.45-.45c-.62-.8-.62-.8-1,.15-.44.45-.41.7-.21,2.08,0,.12-.07.39-.05.51-.36,1.08-1,2.06-1.46,3.16a4.14,4.14,0,0,1-1.39,1.86c-.59.34-.82,1.4-1.32,2.36a13.06,13.06,0,0,1-.73,2,5.55,5.55,0,0,0-1.56,4.19c-.79,1.64-1.55,3.42-2.3,5.32-.12,0-.14-.11-.39-.08-.31-.33-.36-1.6-.83-.39l-.41.7c-.1.14-.23.16-.48.2l-.09-.63a8.94,8.94,0,0,0,.3-1.45c.07-.39-1.09-.48-.13-.87s.57-1.36.71-2.15c.11-.14-.46-.57-.87-.77-.09.27-.32.43-.4.82A3.76,3.76,0,0,0,247,268c-.16.66-.7,1.37-1,2.18-.45,1.34-1.53,2.65-1.15,4.39-.49,1.09-1.22,2.22-.79,3.43l-.49,1c-.66.73-1.49,1.24-.82,2.29-1,.15-.89.9-.66,1.63.2.48,1.15.86,1.33.32.53-.72,1.39-1,1.78-1.79,1.1-3,2.6-5.88,3.59-8.71a4.56,4.56,0,0,1,1.38-2,2.27,2.27,0,0,1-.21,2.07c-.93,1.54-1.71,3.19-2.5,4.84-.07.39-1.07,1.43.36,1.61,0,0,.08.5,0,.64-.8,2.42-2,4.76-2.67,7.16a6,6,0,0,1-.74,1.9c-.88,1.92-.23,3.74-.19,5.78,0,.12.54.18.54.18,1.11-1.19.79.14,1,.62,0,.13-.44.45-.57.47a8.72,8.72,0,0,0-.89,0,1.3,1.3,0,0,0,.5.82,4.56,4.56,0,0,0,1.56,1.05c.81.27.09.63.27,1,.13.87-.43.57-.8.62a1.67,1.67,0,0,1-.93-.24c-.13,0-.34.3-.47.32l.31.34c.34.59.77.91-.27.8-.12,0-.45.45-.32.43.77,1.81-1.21,2.22-1.51,3.67-.27.81-1.45,1.49-.91,2.56l-1.38,14.26c0,.13-.2.42-.16.67-1.41.84-1.66,2.67-2.5,3.94a1.29,1.29,0,0,1-1.66.88c-.8-.27-1.7-.27-2.05.81-.07.39-.32.43-.57.46a30.87,30.87,0,0,1-5.08.23,3.92,3.92,0,0,1-2.76-1.39,2.69,2.69,0,0,0-1.17-1c-1.31-1.09-1.31-1.09-.63-2.59a1.5,1.5,0,0,0-.4-1.86c-.61-.68-.7-1.31.3-1.45a.75.75,0,0,0,.59-.34c.7-.49-1.27-.84-.13-1.77.24-.17.11-1,.27-1.7a.83.83,0,0,0-.32-.47,1,1,0,0,1-.16.66,2.68,2.68,0,0,1,0,.9c0,.12-.23.16-.47.32,0-.12-.16-.23-.07-.5-.07-.5.07-1.29,0-1.79s-.08-.5.76-.88c.36-.18.56-.59.9-.89l.87-1a5.57,5.57,0,0,0-.53,2.5c-.11.15,0,.38.07.5.11-.14.23-.16.32-.43a3.15,3.15,0,0,0,1.23-3C227.18,311.77,227.73,311.18,227.89,310.52Zm-1.45-3.88a.9.9,0,0,0,.26-.81c.18-.54.34-1.2.86-1.15.93.25.38.84.45,1.34-.2.42.32,1.36-.73,1.13C226.67,307.37,225.94,307.6,226.44,306.64ZM231.49,257l-.25,0,.79,5.39a8.5,8.5,0,0,0,.38,1.73.36.36,0,0,1,.26.09v-.13a3.35,3.35,0,0,1-.06-1.27c.78-1.64.28-3.36.17-5-.19-1.26-.22-2.4-.41-3.65-.18-.36.84-1.28-.57-1.33a10.81,10.81,0,0,0-.38-1.73c0-.13,0-.13-.14-.11a3.06,3.06,0,0,0-.72-.53l.09.62Zm1.45,12.57,0-2,0-.13c-.11-.75-.1-1.52-.19-2.14-.78.75-.05,1.41-.17,2.33A11.07,11.07,0,0,1,232.94,269.52Zm2.23,5.68c.06-1.28-1.24-2.37-.73-4.11,0-.12-.28-.21-.41-.19s-.38.05-.36.17l.06,2.17c-.07,1.29.7,2.2,1.39,3.38l.28.21-.07-.5Zm1.59-7.51a11.91,11.91,0,0,1-.52-1.84c-.29-.22-.31-.34-.33-.47-.1.14-.21.29-.19.41a20.44,20.44,0,0,0-.37,2.74.47.47,0,0,1,.16.23C236.15,268.8,236.81,268.06,236.76,267.69Zm.78,3.59,0-1.91c0-.13-.23-.74-.39-.07s-1.23-.59-.71.36.29,2,.31,3a24.61,24.61,0,0,0,.43,3,9.69,9.69,0,0,1,0,2.69c0,.12.16.23.18.35.11-.14.23-.16.21-.28a5.12,5.12,0,0,0,.52-2.63,27.69,27.69,0,0,0-.41-4.55Zm7.19,8.16c.11-.14.23-.16.32-.43,0,.38.09.63.09.63a8.51,8.51,0,0,0-1.82,2.43l-.25,0a2.07,2.07,0,0,0-.25-.86Zm1.1-4.76a4.59,4.59,0,0,1-.28,2.47c-.18.54-.81.63-1.42.84-.43-1.21.3-2.34.79-3.43C245.25,274.25,245.74,274.05,245.83,274.68Zm3.75,8.27c-.46,1.22-.92,2.44-1.51,3.67a1.91,1.91,0,0,1-.19.42c0-.13-.18-.36-.2-.49-.36-1.61.76-2.66,1.44-4.17l.12,0c.25,0,.25,0,.54.18C249.8,282.67,249.82,282.79,249.58,283Zm1.91-10.63a28.79,28.79,0,0,1,1.12-2.84c0-.13.11-.15.36-.18a.47.47,0,0,0,.16.23c-.34,1.2-.57,2.25-1,3.6,0,.12,0,.12-.23.16C251.69,272.8,251.39,272.47,251.49,272.32ZM254.06,261c.26,1.75.22,3.29-1.56,4.19A5.55,5.55,0,0,1,254.06,261ZM257,259.9,255,265a1.65,1.65,0,0,1-.58.47c-.66-.16-.69-.41-.39-1,.66-1.62,1.3-3.38,2-4.88.11-.15.47-.33.56-.59l.12,0c.13,0,.16.23.31.34A.79.79,0,0,0,257,259.9Z"/><path class="cls-10" d="M316.93,232.66c-.54-.18-1-.5-1.36-.57,1.07-1.43,2-2.33,2.91-3.75.55.31,1,.5,1.52.81.93-1.54,1.35-3,2.26-4.68a19.85,19.85,0,0,0-2.57.76A28.28,28.28,0,0,0,323,221c0,.26.2.49.23.74l0,.25c2.06-.81,1.81-.77,1.84-2.31a6.44,6.44,0,0,1,.87-2.81c2.51-3.82,4.78-7.6,7.15-11.52.6-1.11.51-2.63,1.7-4.09,1-.78,1.5-2,3.25-2.26,1.15,0,1.49-1.23,1.41-2.63a11.63,11.63,0,0,1,3-1.58c.25,1.75-1.53,2.65-2.64,3.83l2-.29a5.42,5.42,0,0,1,.54-1.61l.71.54c1.59-.49,2.54-1,4.13-1.5-.71,1.26-1,1.94-1.41,2.64a10.43,10.43,0,0,0,1.77-.13,4.21,4.21,0,0,0,.27-1.7c2.17.83,4.87.06,5.69,2.24,2.2.19,3.71,1.76,5.25,3.58-1,.27-2.05.81-2.91,1.06,1.36.57,3.06.84,4.71,1.62a8.35,8.35,0,0,1-1.45.59c.07.51-.09,1.17,0,1.79a10.3,10.3,0,0,1-2.2-.19c-.82,1.4-1.82,2.44-2.64,3.84-3.63,4.87-6.65,9.65-10.32,14.28a60.29,60.29,0,0,1-5.89,7.88c-.66.74-1.14.93-1.8,1.67-.16-.23-.16-.23-.18-.36.71-1.25,1.69-2.42,2.5-3.94,4.51-5.9,8.91-11.65,13.28-17.65a34.7,34.7,0,0,0,1.87-3,3.71,3.71,0,0,1-.55-.3c-1.39,1.86-2.14,3.76-4.07,5.45-1.59,1.38-2.05,3.49-3.64,4.87a.44.44,0,0,0-.41-.19,6.2,6.2,0,0,1,1.43-2.51.74.74,0,0,0-.52-.05c-1.54,1.75-3,3.76-4.53,5.77a62,62,0,0,0-5.05,7.5c-2,2.33-3.37,5-5.21,7.28a25.77,25.77,0,0,0-4.2,6.23c.05.38.05.38.07.5-2.75,2.19-3.87,5-5.6,8.1-1.25,2-2.49,3.94-3.76,5.79a8.36,8.36,0,0,1-2.52,2.92,3.9,3.9,0,0,1-1.57.61c0,2.44-1.37,4.67-2.86,6.68a25.92,25.92,0,0,0-1,2.83c-.89,1.79-1.8,3.46-2.8,5.39,1.31-.7,2.4-2,3.66-4.75,1.05-1.56,2-3.22,3-5,.22,2.4-3.19,8-7.15,12.41a2.21,2.21,0,0,0-1.31-.19c-1.82,2.44-3.51,4.85-5.58,7.33a5.68,5.68,0,0,1,.21-1.18c-1.37,1.09-2.51,2-2.4,3.67.05.37-.79.75-1.22,1.33a2.37,2.37,0,0,0-.62,1.87,6.24,6.24,0,0,0-2,.94l0,.25a2.61,2.61,0,0,0,1-.27c0,1.14-.82,1.4-1.64,1.9-.91,1.67-1.69,3.31-2.69,5.25l1-.15A9.65,9.65,0,0,0,291,302a22.12,22.12,0,0,0-4.37,4.22c-1.25,1.07-2.82,4.37-4.57,4.62-1,.15-2,1.31-2.4,1.12-1.11-.61-1.36.32-2.09.55-1.3.71-1.7.64-2.27-.69-1.83.65-3.48-1-5.44-.49,0-.12-.15-.1-.16-.23a4.58,4.58,0,0,1,1.21-1.32c-1.79-.9-1.93,1.68-3.56,1a2.46,2.46,0,0,0,.86,1.54,18.45,18.45,0,0,1-8.84-2.81c.09-.27.07-.39.3-.55.52,0,1.45.3,2.22.31-.32-2.25-4.08-.81-4.34-3.46-.1.15-.48.2-.82.51-.68-1.18-1.58-2.08-.94-3.83a5.25,5.25,0,0,0,1.42.95,14.25,14.25,0,0,1,.14-2.58c-.58-.43-.79-1-1.51-1.57a11.66,11.66,0,0,0-.3-7.37,19,19,0,0,0,.38-3.51,7.37,7.37,0,0,0,2.06-.81,8.92,8.92,0,0,1-1.52-.8c.46-3,0-6.14,1-9.09l.5-.07a4.33,4.33,0,0,0,.72,1.43L259,279c0-.89.09-2.06.07-3.07a7.23,7.23,0,0,0-1.77.12c.81-2.29,1.24-3.76,1.74-5.62.12,0,.05-.52,0-.64-.7-4,1.22-7.46,1.8-11.38-.43.57-1,1.16-1.3,1.59a4,4,0,0,1-1.73,1.28,8.41,8.41,0,0,0,.83-3.06,3.13,3.13,0,0,0-1.27.05,1.91,1.91,0,0,0-.66-1.05c2.34-1.49.65-3.42,1.43-5.07,1.07-1.43,1.32-3.26,2-4.89a5.12,5.12,0,0,0,.06-3.07,3.76,3.76,0,0,1,.12-1.81,22.9,22.9,0,0,1,2.05-4.39c1.24-.3,3.2,0,4.49-1.67a8,8,0,0,0,2.79.74c1.33.32,3,.34,4.3.53,1.82.25,3.7,0,4.7,1.62a3.8,3.8,0,0,0,2.26.57c.79,1,1.72,2.17,2.33,2.85-.48,1.09-1.35,2.12-1.73,3.07.42.19.58.42,1,.62a1.8,1.8,0,0,1-.43.57c-1.07,1.44-1.89,2.83-3,4.14-1.05,1.56-2.08,3.25-1.83,5a4.78,4.78,0,0,1-1.28,3.51c-.8.62-.68,1.5-.39,2.61a20,20,0,0,0-2.76,3c-.54.71-.77,1.77-1.34,2.24,2.87,2.14.49,4.27.44,6.58a5.57,5.57,0,0,1,1.83-1.54c-1.43,4.29-4.1,7.88-3.38,12a20.42,20.42,0,0,0,1.59-3.17c.12,0,.39.07.52.05-.25.93-.19,2.2-.55,3.28a4.49,4.49,0,0,0-.42,3.25c-.11,1-1.27,1.85-.34,3,.49.7-.06,2.18-.27,3.37a23.68,23.68,0,0,1-.91,3.45c.72.54,1.52.8,2,1.5,2.45-.74,6.68-5.06,8.81-9.72l1-.14c1.69-2.42,2.85-5,4.27-7.53,1.46-2.25,3.39-3.94,4.25-6a3.94,3.94,0,0,0,.4-2.49c.47.57.61.68.65.93a6.61,6.61,0,0,0,1.88-4.62c.13-.91,1.06-1.56,1.07-2.33a8.86,8.86,0,0,1,1.92,0c.65-1.63,1.31-3.26,2.1-4.9a3.8,3.8,0,0,1,1.84-1.42,5.4,5.4,0,0,1,0-1.67c.3-.55.66-.73,1.5-1.11-1.49-3.23,2.1-4,4-6.2a3.57,3.57,0,0,1-1.79,0,11.66,11.66,0,0,0,1.53-1.76c.4.07.54.18,1.33.32a12.16,12.16,0,0,0-.67-1.95c.73-.23,1.22-.43,1.34-.45a30.78,30.78,0,0,1,1.57-3.29,2.43,2.43,0,0,0,1.15.85,4.45,4.45,0,0,0-.72-1.43c1-1.56.33-3.88,2.56-5.23a8,8,0,0,0,.61,1.58,5,5,0,0,0,1.44-4.17s0-.26,0-.38a.42.42,0,0,0-.16-.23C314.68,234.77,315.7,233.86,316.93,232.66ZM287.65,282.8c-.27-.09-.29-.22-.45-.45-1.09,1.31-2.46,2.4-2.19,4.28A43.94,43.94,0,0,1,287.65,282.8ZM314,236c0,.12,0,.38,0,.38-.16-.24-.2-.49-.46-.58C313.81,235.8,313.82,235.92,314,236Zm6.53,15c1.4-2.63,3.38-4.84,3.73-7.7-1.53,2.65-2.86,4.89-4.33,7.15C320.08,250.86,320.48,250.93,320.5,251.06ZM331,232.91c-1.59,2.28-2.59,4.21-4,6.2C330.39,235.56,331.35,234.27,331,232.91Zm.23,8.66a33.48,33.48,0,0,1,4.87-7c0,.13,0,.13.18.36C335.65,237.48,333.26,239.49,331.26,241.57Z"/><path class="cls-11" d="M353.3,241.06l-2.46,5.08c-.28.68-.19,1.31.68,1.18a7.19,7.19,0,0,0,2.4-.22c3.18-1,6.2-2.18,9.12-3.24a23.44,23.44,0,0,1,3.93-1.08c1-.15,0-1,.75-1,.62-.1,1,.1,1.64-.11a2,2,0,0,0,1-.92c.11-.14-.05-.37-.09-.62.2-.42-.56-1.2.62-1,.52.05.81.27.42,1.09-.68.61.2.48.45.45a1,1,0,0,0,.55-1.49c.09-.27-.11-.75,0-.89a1.32,1.32,0,0,1,1-.4c1.31.19,2.92-.17,4.14,1.19.16.23.78.14,1.16.09a42.11,42.11,0,0,1,6.88-1c1.78-.13,2.73,1.13,3.68,2.4a.85.85,0,0,1-.45,1.35h-.12c-.91.78,1.49,1.45-.44,2.24-1,.4-.93.65-.45,2.24.18.36.45.45.24.73-.25.93.37.84.88.77l.87-.13c2.15-1.08,2-.29,2,1.63a6.36,6.36,0,0,1-.75,1.89c-.36,1.08-1.14.94-1.73,1.28l-1.92.91a33.22,33.22,0,0,1-7.75,2.92,30.44,30.44,0,0,0-4.51,1.55c-3,1.45-6.13,1.78-9.26,2.24a27.79,27.79,0,0,0-8.69,2.66,24.11,24.11,0,0,1-9.87,1.56,9.09,9.09,0,0,0-3.16,1.1c-1.32.58-1.68,1.65-1.86,3.08a23.79,23.79,0,0,1-1,3.35c-.82,2.29-1.51,4.57-2.17,7.09-.11.14-.34.31-.32.43,0,2.81,0,2.68,2.31,1.84,2.95-.81,5.86-1.88,8.81-2.69,1.68-.75,3.67-1.17,5.47-1.94a41.45,41.45,0,0,1,6.83-2.27,2.71,2.71,0,0,0,2.29-1c.28-.68.59,1.44,1.16.08.32-.43,1-.39,1.58-.61a4.64,4.64,0,0,1,1.8-.77c2.42-.1,4.56-1.17,6.83-2.27A15.83,15.83,0,0,1,383,269c1.81.12,2.65,1.53,3.24,3,.36.72-.17,1.43-1,1.81-.36.18-.84.38-.77.88-.32.43-.21,1.18-.26,1.7a4.27,4.27,0,0,0,.8.27c.43.32,1.13.73.52,1.84-.3.55.38.84.79,1,.15.11.18.36.45.45-.37,0-.5.07-.59.34a1.41,1.41,0,0,1-.71.36,1.26,1.26,0,0,0,.66.16l.66.16,1.7,1.16a9.78,9.78,0,0,1-1.86.4c-1.25.18-.37.94-.21,1.18s.68.28-.14.78a4.31,4.31,0,0,0-1.07.54l-9.4,3a24,24,0,0,1-2.85.67c-2.14.18-4,1.22-6.07,2.16-5.22,2.8-10.6,6.27-16.37,7.87-3,.69-5.81,2.25-8.65,2.92-3.92,1.2-7.66,1.88-11,.18-.66-.16-1-.62-1.67-.91-.59-.55-1-1.39-1.77-1.65-1-.75-1.06-2-1.83-2.93a1.74,1.74,0,0,1,1.28-1.73l3.7-.92c.25,0,.36-.18.59-.34-.12,0-.43-.32-.55-.3-1-.5-2.17-.84-3.53-1.41a4.52,4.52,0,0,1-2.78-4.19,7.73,7.73,0,0,1,.22-3.74c.57-1.36.35-2.87.67-4.19.38-.95.23-1.95.59-3s-.06-2.16.15-3.34c.39-.82.39-.82,1.25-1.08l.25,0a6.09,6.09,0,0,0,.08-2.06c0-.25-.09-.63.27-.81s.2-.41.29-.68c-1.31-.19-.4-1.85-1.1-2.27,0,0-.06-.37.07-.39a15.37,15.37,0,0,1,2-1.18c.13,0,.09-.27.18-.54-.13,0-.16-.23-.29-.22a3.83,3.83,0,0,1-2.88-.47c-.43-.32-.75-.79,0-1s-.45-1.34.8-1.52c-.27-.09-.29-.22-.29-.22-2.05-1-2.85-2.91-3.64-4.84a4.78,4.78,0,0,1-.5-2.61c-.08-.5.62-1,.8-1.52.66-.74.87-.13,1.27-.06a14.24,14.24,0,0,0,4.49.12,30,30,0,0,0,4.63-1.57c.37,0,.71-.36,1-1l3-7.47c1.25-2.86,1.94-6,3.67-9.09a2,2,0,0,0-.53-2.74l-1.91-1.76a10.08,10.08,0,0,0-1.74-2.31c-.92-1-.1-2.41-.51-3.5-.15-.11,1.57-1.51,1.84-1.42a15.92,15.92,0,0,1,3.45,0c1.32.32,2.75-.4,4.29-.37.38,0,.3-.55.41-.7.88-1,.69-2.27,1.28-3.51.3-1.44,1.16-2.59,1.5-3.79a5.77,5.77,0,0,0,.28-2.47c-.06-.38-.47-.57-.36-.72a5.91,5.91,0,0,0,1-1c-.38-.84,0-1.15.82-1.4a5.79,5.79,0,0,1,1.53-.86.93.93,0,0,1,.65,0c.88.77,1.86.5,2.88.48,1.05.23,1.47,1.32,2.4,1.57a16.29,16.29,0,0,1,5.89,3.61c.16.24.09.63.29,1.11.41,1.09,1.08,1.25,2.31.95A60.14,60.14,0,0,1,380.87,210a18.64,18.64,0,0,0,4.38-1.53c.12,0,.35-.18.33-.31.38-1.84,1.38-1.09,2.2-.7a3.78,3.78,0,0,0,2.72.24,35.26,35.26,0,0,0,4-.06l3.18-.08c.65,0,1.15,0,1.59.41a1,1,0,0,1,.4,1c-1,1.16-.28,1.57.1,2.41s.27,1-.27,1.7c-1,.92-.84,1.27-.41,2.49v.77c0,.12-1,.27-.18.53.5-.07.75-.1.89,0,.42.2,1,.5.88.77-.16.66-.75.11-.91-.12-.25,0-.79-.14-1-.11a2.29,2.29,0,0,0-.86.25c.27.09.4.08.56.31l1.06.23c.78.14.5.82.43,1.21s-.68.61-.93.65-.43-.32-.82-.39-.45.45-.18.53c.68.29.59.56-.11,1s-.3.56,0,.9c.27.09.42.19.45.44.27.09,0,.52,0,.77a1.35,1.35,0,0,1-.65,0c-.64,0-1.09-.48-1.89-.75-.52-.05-1-.5-1.2-.34-1.65,1-3.22-.17-4.51.66-.36.18-1.2.55-1.36.32a5,5,0,0,0-3.93,1.09,3.58,3.58,0,0,1-2.47.61,4.19,4.19,0,0,0-3.54,1.15c-2.52,2-5.27,2.43-8.33,2.49a7.38,7.38,0,0,0-2.22.58,20.18,20.18,0,0,1-3.25,1.36,5.38,5.38,0,0,0-1.89,1.05.36.36,0,0,0,.16.23c0,.12.18.35.19.48-.37,0-1.23.31-1.25.18a2.44,2.44,0,0,0-2.75-.49,11.28,11.28,0,0,0-3.5,2.29c-.49.2-.68.61-1.11,1.19a.41.41,0,0,0,.16.23.68.68,0,0,1,.45.45c-.62,1-1.37,2-1.87,2.95a4.48,4.48,0,0,0-2.07,2.47c0,.13.07.51.11.76.1-.15.35-.18.34-.31a9.59,9.59,0,0,1,1.73-2.17C353.42,240.14,353.64,240.75,353.3,241.06Zm41.36-22.37a2.85,2.85,0,0,0-.82.51l.2.48a9.75,9.75,0,0,0,1.16,1c.4.07.61-.22.86-.25,0-.13.43-.58.18-.54Z"/><path class="cls-12" d="M462.48,205.14a10.89,10.89,0,0,0,1.17,2.77c.2.48.58,1.32,1.2.34.3-.56.25,0,.41.2a25.94,25.94,0,0,1,1.49,3.23c.17.23.45.45.58.43,2.48-.49,2.65,1.53,3.53,3.19a6.07,6.07,0,0,1,.51,2.61c-.15.79.25.86.68.29,0,0,.52.05.55.3.19,2.15.78,4.49-.06,6.66a.42.42,0,0,1-.08.26c1.52.81.21,1.51.07,2.29a18.46,18.46,0,0,1-2.15,4.53,11.78,11.78,0,0,1-2.7,3.46c-1,.79-1.58,2.28-2.44,3.42a19,19,0,0,1-5.6,6.32,9,9,0,0,0-2.48,2.27,20.38,20.38,0,0,1-7.19,3.35c-.75.11-1.21.43-1.84.52a8.2,8.2,0,0,1-2.3.84l1.79,1.79a88.49,88.49,0,0,1,7.17,6.25,23.8,23.8,0,0,0,7.79,5.25,12.61,12.61,0,0,1,3.3,2.47c2.67,1.65,5,3.62,7.67,5.27.82.4-.66.74,0,1.15.87.77,1.41,1.84,2.31,2.73.47.57.34.59-.53.72-.51.07-.18.53,0,.77s.16.23.34.59c-1.34.45-.09,2-1.14,2.72,0,.25.09.62.24.73.35.72,0,.89-.52.84-.83-.39-1.38.2-2.11.44-.48.19-.48.19-.25.93,0,.25-.78,1.65-1.28,1.72a4,4,0,0,1-2.46-.16c-.69-.41-1,.15-.92.65-.05,1.41-.38,1.84-1.48,2.13a2.06,2.06,0,0,0-1.77,1,4.5,4.5,0,0,1-2.74,1.42,3,3,0,0,1-2.93-1.74c-.35-.59-.56-1.2-1.44-1.07-.12,0-.28-.22-.28-.22-.63-1.7-2.5-2.19-3.8-3.28l-3.57-3.45c-1.76-1.53-3.25-3-4.84-4.28s-3.07-2.62-4.56-4.07l-7-6.13-6.17-5.5c-.32-.46-.59-.55-1.32-.32-1.91.92-3.86,1.58-5.92,2.39a39.83,39.83,0,0,0-9.11,5l-.3.56c0,.12.16.23.18.36,0-.13.1-.15.21-.29a1.37,1.37,0,0,0,.59-.34,1,1,0,0,1,0,.64c-.57,1.36-.62,2.78-1.75,3.83a3.6,3.6,0,0,0-.3,1.45,28.13,28.13,0,0,1-1.1,4.76,44.67,44.67,0,0,1-1.38,4.55,14.77,14.77,0,0,1-.77,2.67,3.45,3.45,0,0,0-.76,2.67c.11.75-.35,1.07-1,1.16l-1.25.18c-.5.07-1.31-.19-1.52.1a3,3,0,0,0-.84,2.16,3.26,3.26,0,0,1-2.08,3.24c-.26,0-.36.18-.72.36-.16.67-.86,1.15-1.2.56s-1.38-.69-.79-1.93a11.29,11.29,0,0,0,.66-3.42c.08-.27-.2-.48-.51-.82-.09.27-.17.54-.3.56a3.28,3.28,0,0,1-2.66.13,8.1,8.1,0,0,0-3.93-1.48,2,2,0,0,1-1.77-1.66c-.4-2.75-.53-5.42,1-7.82l1-2.45c.1-.15.28-.68.41-.7.77,0,.73-.23.32-.43s-.59-.55-.09-.63a3.1,3.1,0,0,0,1.83-3.2.78.78,0,0,1,.29-.68c.43-.58.85-1.15.78-1.65-.18-2.15.83-4,1.62-5.6l.1-1c.25-.93.21-2.08,1-2.71.58-.46.75-1,.18-1.43.72-.36.57-1.36,1-1.93l.1-1.93.94-3.21c1.15,0,.75-1,1.07-1.43a1.42,1.42,0,0,0,.12-1.81,2.54,2.54,0,0,1,.12-1.81c.22-1.18.95-2.31,1.16-3.49a26.25,26.25,0,0,0,1-4c0-.25-.6-.55-.76-.78a1.88,1.88,0,0,1-1.41-1.84l.17-.54c.88-1,1.2-2.35,2.63-3.07,2.05-.81,2.8-2.7,2.88-4.76.06-.52,0-.9.11-1l2.15-6.32c.53-1.61.19-2.2-1.42-2.73a20.67,20.67,0,0,0-3.17-.69,2,2,0,0,1-2.09-1.23c-.11-.75-1.44-1.07-.72-2.33.32-.43.06-1.28.08-2.05.09-.27,0-1,.36-1.08s.92-.64,1.35-.32a4.26,4.26,0,0,0,2.76-.4,63.51,63.51,0,0,1,6.59-3c.74-.23,1-.91,1.16-1.7.48-2,1.12-3.74,1.46-5.83.26-2.6.72-2.92,3.28-2.91.39.07.68.29,1.06.23,2.89-1.19,5.44.49,8.1,1.25a4,4,0,0,1,.86.65c.31.34.44,1.21.69,1.18a10.18,10.18,0,0,0,2.95.08,40,40,0,0,1,5.52-1.57,12.66,12.66,0,0,0,2.93-.94c1.88-.27,3.81-1.06,5.74-1,1.52-.09,3.26-.47,4.87.06a4.33,4.33,0,0,0,1.29.07c2.9-.29,5.35.76,8.14,1.5a1,1,0,0,0,.32.47c-.25,0-.46.32-.71.36a1.52,1.52,0,0,0-.95-.38l-.25,0c0,.12.07.5.32.46l.93.25a3.73,3.73,0,0,1,2.93,2.52c-1.26.18-.45,1.34-.84,2.16-.11.15.36.72.54,1.08a2.69,2.69,0,0,0,0-1c.11-.15.05-.52.3-.56,1.13-.16.43-.57.11-1a.92.92,0,0,1-.09-.62A1.27,1.27,0,0,1,462.48,205.14Zm-72.15,76.17c.12,0,.23-.16.35-.17a24.07,24.07,0,0,0,.77-2.67c.1-.14-.07-.5-.09-.63-.11.15-.24.16-.18.54a9.77,9.77,0,0,0-.93,2.43Zm9.28-9.14c-.68.61-.64,1.76-1.73,2.17l0,.25c0,.12.26.09.39.07,1.13-.16,1.39-1,1.89-1.94,0-.12.07-.39.39-.82C400.09,272,399.72,272,399.61,272.17Zm.48-1.09c1.21-.43.66-1.63.92-2.44a.36.36,0,0,0-.16-.23,16.36,16.36,0,0,0-1.28,1.72,1.17,1.17,0,0,0-.39.83c-.13,0,.05.37.19.48A1.37,1.37,0,0,1,400.09,271.08Zm1.46,3.88-.47.32-.26.81a4.87,4.87,0,0,0-.59,2.13c.29-.68.71-1.26,1.1-2.08a1.84,1.84,0,0,0,.23-1.06Zm37.51-62.07c-4.23.74-7.65,2.77-11.81,4-.25,0-.73.24-.72.36-.65,1.63-1.94,2.46-2.06,4.26.07.5-.61,1.12-.73,1.13-.95-.37-.93.65-1.13,1.06-.57,1.36-1.1,3-1.54,4.31a3,3,0,0,0,0,1.54c.7,1.31,1.89,2.41,2,4.06a1.77,1.77,0,0,0,.89.89L429.3,239a1.31,1.31,0,0,0,.66.16c.74-.23,1.11-2.08,2,0,.47-.32,1.34-.45,1.81-.77,1.12-1.95,3.88-1.46,5-3.16,2.59-.63,4.5-2.44,6.52-3.5,1.43-.72,2.86-1.44,3.21-3.41.07-.39.8-.63,1-1,.8-.63,1.73-1.27,2-2.08l1.87-3a17.28,17.28,0,0,0,1.39-2.75c.64-.86.44-1.35-.56-2.1-.43-.32-.82-.39-.4-1,.63-1,.07-1.29-.75-1.68a8.36,8.36,0,0,0-1.9-.75c-3-.71-6.17-1.15-9.2-1.73a1.92,1.92,0,0,1-1-.11A6.83,6.83,0,0,1,439.06,212.89Zm3.69,25.41a2.66,2.66,0,0,0-2.37.34,22.23,22.23,0,0,1-2.2,1.6l-.56.59a5,5,0,0,0,.79.14c.29.22.38-.05.73-.23a6.62,6.62,0,0,1,3.7-1.81,1.26,1.26,0,0,1,.07-.4S442.79,238.55,442.75,238.3Zm2.07,12.48c-.12,0-.19.41-.16.66a1,1,0,0,0,.57.43,19.89,19.89,0,0,0,2.4-1.11l-.07-.5c-.42-.2-.79-.15-1.2-.34Zm9-43.62a1.94,1.94,0,0,1-.61-.67c-1-1.27-3-.71-3.87-2l-.25,0c-1,.39-1.93-.1-3-.21-.14-.11-.23.16-.61.22.15.1.4.07.56.3a18.4,18.4,0,0,1,4.67,2.26,3.8,3.8,0,0,0,2.61.39A1.37,1.37,0,0,1,453.83,207.16Zm-5.95,41.77-.22.29c.41.19,1.13.73,1.24.59a4.21,4.21,0,0,0,1.07-1.44c-.13,0-.27-.09-.25,0A5.47,5.47,0,0,0,447.88,248.93Zm3.12-16.3a3.18,3.18,0,0,0,2.29-1.87.5.5,0,0,0-.18-.36l-.25,0a2.55,2.55,0,0,1-.82.5l0-.12c-.41-1.09-.41-1.09-1.31-.2a2.5,2.5,0,0,1-.85.26c-.7.48-1.38,1.09-2,1.43,0,.13,0,.13-.18.54l.5-.07a13,13,0,0,0,1.25-1.08c.58-.47,1-.27,1.52-.09C451,231.86,451,232.38,451,232.63Zm.53-29c0,.13.32.47.45.45a5.39,5.39,0,0,0,1.5.68c.95.37.18-.54.41-.7.7-.49.09-.27-.28-.22a3.25,3.25,0,0,0-1.6-.4C451.91,203.61,451.78,203.63,451.53,203.66Zm2.38,34c1.26-.18,2-1.31,2.77-2.06a9,9,0,0,0,1.29-1.72c-.77-.91.37-.95.69-1.38l.3-.56-.62.09c-1.48,1.24-2.8,2.71-4.39,4.09l-.86,1.15c-.11.14-.11.14-.07.39.13,0,.27.09.39.07Zm5-13a12.5,12.5,0,0,1-2.77,1.17c-.71.36-1.36.33-.36,1.08.6.55.26.85.81.26l2.54-1.9c.1-.14.34-.3.42-.57C459.31,224.65,459,224.56,458.93,224.7Zm4.44-4.6c0-.13-.39-.08-.39-.08a18.2,18.2,0,0,0-.91,1.67c0,.12.16.23.18.36C463.49,221.74,463.75,220.94,463.37,220.1Zm5.28,64.55c0-.13-.37.05-.46.32.07.5.82,1.28,1.29,1a1,1,0,0,0,.71-.36C470,284.45,469.19,284.82,468.65,284.65Z"/><path class="cls-13" d="M483.86,222.11c.39-.83.91-1.67,1.51-2.78a1.61,1.61,0,0,1-1-.5,4.69,4.69,0,0,1,1.32-1.47l-.13,0c.78-2.54,1.73-4.85,2.63-7.41.64-1.76,1.25-3.76,1.89-5.52a5.17,5.17,0,0,1,1-2.06c.79-.75.77-1.77.45-3.13-2.42-.8-5-1.83-7.83-2.82-.43-.32-.9-.9-1.18-1.11-1.69-1-3.39-2.19-5.07-3.23s-2.71-2.8-3.59-4.46c.25-.93.28-1.58.44-2.24,1.68.14,3.24-1.49,5.1-1,3.88.33,7.62-.34,11.37-.89a29.14,29.14,0,0,0,5.69-1.33,7.62,7.62,0,0,0,2.4-1.12,1.91,1.91,0,0,1,2-.29,8.25,8.25,0,0,0,5.83-.33c1.8-.78,4.06-1.11,6.26-1.81,2.71-.65,5.27-1.53,7.95-2.43,3.06-1,6.22-2.05,9.32-2.76,2.59-.63,5.63-.82,8.13-1.18a21.55,21.55,0,0,1,4-.58,4.23,4.23,0,0,1,3.85,1.87c.28.21,1,.62,1.83,1.14a13.88,13.88,0,0,0-1.42.84c1,.5,2.37,1.32,3.48,1.93,0,.25-.09.27-.07.39l-3.51.51c1.4.82,3,1,3.25,3a22.51,22.51,0,0,0-4,1.48c-1.21-.47-2.59-.27-4.34,0,2.79,1.64,5.67,3,8.47,4.65a10.13,10.13,0,0,0-1.95.66,9.93,9.93,0,0,1,2.1,1.24c-1.45.59-3-.71-3.85.81a6.37,6.37,0,0,0-2.72-.25c-2.38.35-4.93.34-7.31.68a73.6,73.6,0,0,0-7.33,1.45c-3,.44-5.83,1.23-9,1.43a12.91,12.91,0,0,0,3-1.33c-.12,0-.16-.23-.27-.09a31.11,31.11,0,0,0-4.68,1.19c-1.82.65-2.5,2.16-3.32,3.55-1,1.94-1.74,3.84-2.74,5.77a95.62,95.62,0,0,1-4.38,9.46c-.86,2-1.89,3.72-2.89,5.66-1.37.2-.79-1-1.39-1.72-1.92,1.81-1.89,4.62-2.83,6.93a16.84,16.84,0,0,0-2.15,7.22c.32-.43.37-.95.82-1.4.63.8.43,1.21,0,1.91-.34.31.41,1.09.67,2a5.27,5.27,0,0,0-1.22-.46c-2.35,4.05-5,8.13-6.21,13.55.55-.59.67-.6.78-.75.36-.18.41-.7.54-.72l.5-.07a19.49,19.49,0,0,0-1,3.6c-1.11.29-1.54.86-2,2.2-.92,3.33-2.07,6.83-3.09,10.42-.1.15.06.38.11.75.31-.55.73-1.13.82-1.39a1,1,0,0,1,.54.17c-.43,1.47-1,3.08-1.62,4.71s-.74,1.9.55,2.86c-.22.29-.16.67-.38,1a3.33,3.33,0,0,0-.37.95l1-.14c.45,1.34-.14,2.57-.46,3.9a9.52,9.52,0,0,0,.77,5.26,6.08,6.08,0,0,1-1.64,1.9,9.68,9.68,0,0,1-2.08,1.57,12,12,0,0,1-2.91,1.07,2.67,2.67,0,0,0-2.57.75c-1.58-.28-3.3-.67-4.87-.95a3.34,3.34,0,0,0-3.5-3c-.6,2-1,2.06-3.46,1.66a5.57,5.57,0,0,1,1.12-1.06c-.88-.77-1.72-2.18-1.37-3.25.64-1.76,0-3.46.53-5.19a33.93,33.93,0,0,0,.92-3.33c.89-2.69,1.65-5.35,2.54-8a29.85,29.85,0,0,1,.57-3.15c.39-.82,1.1-1.18,1.78-1.79a13.34,13.34,0,0,1,1-2.83c1-1.94,2.26-3.78,3.92-6.45a30.51,30.51,0,0,1,1.26-3.63c-2.23.45-2,2.72-3.17,4.55a21.3,21.3,0,0,1,2.06-6.95c.14.11.52.05.66.16a10.74,10.74,0,0,0,2.16-.95c1.42-3.4,2.94-7.08,4.59-10.64a18.07,18.07,0,0,0,1.34-3.13,49.37,49.37,0,0,0,2.18-6.07,5.3,5.3,0,0,0-.29-2c.84-1.27,1.93-2.57,3-4.13a3.35,3.35,0,0,1-1.65-.79c-.42.58-.49,1-.83,1.27a17.65,17.65,0,0,1-.94,3.21c-1.72.5-2.06,1.7-2.48,3.17a11.37,11.37,0,0,0,1.49-2c0,2.69-1.56,4.19-2.18,6.07,0,0-.16-.23-.29-.21.16-.66.41-1.59.59-2.13-.68.61-1.36,1.22-2.15,2l.29.22a6.24,6.24,0,0,0-.79-.15,10,10,0,0,1-1.21,2.23l0,.12C482.2,224.78,483.31,223.59,483.86,222.11Zm.22,3.29a3.47,3.47,0,0,1,.56,1.2l.87-.13a40.81,40.81,0,0,0-1.62,3.81l-1.75.26c.14-.79.39-1.72.43-2.37a7.31,7.31,0,0,0-1.23,3c-.45-.44-.77-.91-.67-1,.59-1.23.34-3,1.91-3.6l0-.12c-.05.51,0,1.14,0,1.78A10.74,10.74,0,0,1,484.08,225.4Zm8.68,7.81c-.13,0-.52-.05-.54-.17-1,2.06-2.1,4-3.33,6.1A10.2,10.2,0,0,0,492.76,233.21Z"/><path class="cls-14" d="M537.18,214.37l-2.45,5.08c-.29.68-.2,1.31.68,1.18a7,7,0,0,0,2.4-.22c3.18-1,6.2-2.18,9.11-3.24a23.28,23.28,0,0,1,3.94-1.08c1-.15,0-1,.74-1s1,.1,1.65-.11a2.07,2.07,0,0,0,1-.92c.11-.14-.06-.38-.09-.63.19-.41-.56-1.19.62-1,.52.05.81.27.41,1.09-.67.61.2.48.45.45a1,1,0,0,0,.55-1.49c.09-.27-.1-.75,0-.89a1.35,1.35,0,0,1,1-.4c1.3.19,2.91-.17,4.13,1.19.16.23.79.14,1.17.09a42,42,0,0,1,6.88-1c1.77-.13,2.72,1.13,3.67,2.4a.85.85,0,0,1-.44,1.35h-.13c-.91.77,1.49,1.45-.44,2.24-1,.4-.93.65-.44,2.24.18.36.45.44.23.73-.24.93.38.84.88.77l.88-.13c2.14-1.08,2-.29,2,1.62a6.27,6.27,0,0,1-.74,1.9c-.36,1.08-1.15.94-1.74,1.28l-1.91.91a33.29,33.29,0,0,1-7.76,2.92,30.72,30.72,0,0,0-4.5,1.55c-3,1.45-6.13,1.78-9.26,2.24a27.45,27.45,0,0,0-8.69,2.66,24.11,24.11,0,0,1-9.87,1.56,9.09,9.09,0,0,0-3.16,1.1c-1.33.58-1.68,1.65-1.86,3.08a22.66,22.66,0,0,1-1.05,3.35c-.81,2.29-1.51,4.57-2.16,7.09-.11.14-.34.31-.32.43,0,2.81,0,2.68,2.31,1.84,3-.81,5.86-1.88,8.81-2.69,1.68-.75,3.67-1.17,5.47-1.94a41.13,41.13,0,0,1,6.83-2.27,2.72,2.72,0,0,0,2.29-1c.28-.68.59,1.44,1.16.08.32-.43,1-.39,1.57-.61a4.75,4.75,0,0,1,1.81-.77c2.41-.1,4.56-1.17,6.83-2.27a15.79,15.79,0,0,1,7.27-.93c1.81.12,2.66,1.53,3.25,3,.36.72-.18,1.43-1,1.81-.35.18-.84.38-.76.88-.32.43-.22,1.18-.27,1.7a4.21,4.21,0,0,0,.81.27c.43.32,1.13.73.52,1.84-.3.55.38.84.79,1,.14.11.18.36.45.45-.38.05-.5.07-.59.34a1.4,1.4,0,0,1-.72.36,1.32,1.32,0,0,0,.67.16l.66.16,1.7,1.16a10.82,10.82,0,0,1-1.86.4c-1.25.18-.37.94-.21,1.18s.68.28-.14.78a4,4,0,0,0-1.07.54l-9.41,3a23.4,23.4,0,0,1-2.84.67c-2.15.18-4,1.22-6.08,2.16-5.22,2.8-10.59,6.27-16.37,7.87-3,.69-5.81,2.25-8.65,2.92-3.91,1.2-7.65,1.87-11,.18-.67-.16-1-.62-1.67-.91-.59-.55-1-1.39-1.77-1.66-1-.74-1.06-2-1.84-2.92a1.75,1.75,0,0,1,1.29-1.73l3.7-.92c.25,0,.36-.18.59-.34-.13,0-.43-.32-.56-.3-1-.5-2.16-.84-3.52-1.41a4.52,4.52,0,0,1-2.79-4.19,7.62,7.62,0,0,1,.23-3.74c.57-1.36.35-2.87.67-4.19.37-.95.23-1.95.58-3s-.06-2.16.16-3.34c.39-.82.39-.82,1.25-1.08l.25,0c0-.77.3-1.45.08-2.06,0-.25-.09-.63.27-.81.25,0,.19-.41.28-.68-1.3-.19-.4-1.86-1.09-2.27,0,0-.06-.37.07-.39a14.15,14.15,0,0,1,2-1.18c.12,0,.09-.27.17-.54-.12,0-.16-.23-.28-.22a3.83,3.83,0,0,1-2.88-.47c-.43-.32-.76-.79,0-1,.59-.34-.45-1.34.8-1.52-.27-.09-.29-.22-.29-.22-2.06-1-2.85-2.91-3.64-4.84a4.89,4.89,0,0,1-.51-2.61c-.07-.5.63-1,.8-1.52.66-.74.88-.13,1.27-.06a14.25,14.25,0,0,0,4.49.12,29.29,29.29,0,0,0,4.63-1.57c.38,0,.72-.36,1-1l3-7.47c1.25-2.86,1.94-6,3.67-9.09a2,2,0,0,0-.53-2.74l-1.92-1.76a9.54,9.54,0,0,0-1.74-2.31c-.91-1-.09-2.41-.51-3.5-.14-.11,1.57-1.51,1.84-1.42a16,16,0,0,1,3.46,0c1.32.32,2.75-.4,4.29-.37.37,0,.3-.55.41-.7.87-1,.69-2.27,1.28-3.51.3-1.44,1.16-2.59,1.49-3.79a5.62,5.62,0,0,0,.28-2.47c-.05-.38-.46-.57-.36-.72a5.53,5.53,0,0,0,1-1c-.38-.85,0-1.15.82-1.4a6,6,0,0,1,1.54-.86c.25,0,.5-.08.64,0,.88.77,1.86.5,2.88.48,1.06.23,1.47,1.32,2.41,1.57a16.37,16.37,0,0,1,5.89,3.61c.16.24.09.63.29,1.11.41,1.09,1.07,1.25,2.31.95a60.2,60.2,0,0,1,13.76-3.79,18.48,18.48,0,0,0,4.38-1.53c.13,0,.36-.18.34-.31.37-1.84,1.38-1.09,2.2-.7a3.77,3.77,0,0,0,2.72.24,35.05,35.05,0,0,0,4-.06l3.19-.08c.64,0,1.14,0,1.59.41a1.07,1.07,0,0,1,.4,1c-1,1.16-.29,1.57.09,2.41s.27,1-.26,1.7c-1,.91-.84,1.27-.41,2.49l0,.77c0,.12-1,.27-.17.53.5-.07.75-.11.89,0,.41.2,1,.5.88.77-.16.66-.75.11-.91-.12-.25,0-.79-.14-1-.11a2.24,2.24,0,0,0-.86.25c.27.09.4.07.56.31l1.05.23c.79.14.51.82.43,1.21s-.67.61-.92.65-.43-.32-.83-.39-.44.44-.18.53c.69.29.6.56-.1,1s-.3.56,0,.9c.27.08.41.19.45.44.27.09,0,.52,0,.77a1.31,1.31,0,0,1-.64,0c-.64,0-1.09-.48-1.9-.75-.52-.05-1-.5-1.2-.34-1.64,1-3.22-.17-4.5.66-.36.18-1.2.55-1.36.32a5.05,5.05,0,0,0-3.94,1.08,3.51,3.51,0,0,1-2.46.62,4.18,4.18,0,0,0-3.54,1.15c-2.52,2-5.28,2.43-8.33,2.49a7.38,7.38,0,0,0-2.22.58,20.18,20.18,0,0,1-3.25,1.36,5.67,5.67,0,0,0-1.9,1,.42.42,0,0,0,.16.24c0,.12.18.35.2.48-.37,0-1.23.31-1.25.18a2.46,2.46,0,0,0-2.76-.49,11.51,11.51,0,0,0-3.5,2.29c-.48.2-.68.61-1.1,1.19a.36.36,0,0,0,.16.23.69.69,0,0,1,.45.44c-.63,1-1.38,2-1.88,3a4.48,4.48,0,0,0-2.07,2.47c0,.13.08.51.11.76.11-.15.36-.18.34-.31A9.94,9.94,0,0,1,537.5,213C537.31,213.45,537.52,214.06,537.18,214.37ZM578.55,192a3,3,0,0,0-.82.5l.19.49a9.8,9.8,0,0,0,1.17,1c.39.07.61-.22.86-.25,0-.13.43-.58.17-.54Z"/><path class="cls-15" d="M646.37,178.45a10.89,10.89,0,0,0,1.17,2.77c.2.48.57,1.32,1.2.34.3-.56.25,0,.41.2a25.94,25.94,0,0,1,1.49,3.23c.16.23.45.45.57.43,2.49-.49,2.66,1.53,3.54,3.19a6.08,6.08,0,0,1,.5,2.61c-.14.79.25.86.68.29,0,0,.52.05.56.3.18,2.15.78,4.49-.06,6.66a.41.41,0,0,1-.09.26c1.53.81.22,1.51.08,2.29a18.46,18.46,0,0,1-2.15,4.53,12,12,0,0,1-2.7,3.46c-1,.79-1.59,2.28-2.44,3.42a19,19,0,0,1-5.6,6.31A9,9,0,0,0,641,221a20.33,20.33,0,0,1-7.18,3.35c-.75.1-1.22.43-1.84.52a8.15,8.15,0,0,1-2.31.84l1.79,1.79a86.91,86.91,0,0,1,7.17,6.24,23.82,23.82,0,0,0,7.8,5.26,13,13,0,0,1,3.3,2.46c2.66,1.66,5,3.62,7.66,5.28.83.4-.66.74,0,1.15.88.76,1.42,1.84,2.32,2.73.46.57.34.59-.54.72-.5.07-.18.53,0,.77,0,.12.16.23.34.59-1.34.45-.09,2.05-1.14,2.72a1.34,1.34,0,0,0,.23.73c.36.71,0,.89-.52.84-.82-.39-1.37.2-2.11.44-.48.19-.48.19-.24.93,0,.25-.79,1.64-1.29,1.72a4,4,0,0,1-2.45-.16c-.7-.41-1,.15-.93.65,0,1.41-.37,1.84-1.48,2.13a2.08,2.08,0,0,0-1.77,1,4.45,4.45,0,0,1-2.73,1.42,3,3,0,0,1-2.94-1.74c-.34-.59-.56-1.2-1.43-1.07-.13,0-.29-.22-.29-.22-.63-1.7-2.49-2.19-3.8-3.28l-3.57-3.45c-1.75-1.53-3.24-3-4.83-4.28s-3.07-2.62-4.56-4.07l-7-6.13-6.17-5.5c-.32-.47-.59-.55-1.33-.32-1.91.92-3.86,1.58-5.91,2.39a39.83,39.83,0,0,0-9.11,5l-.31.56c0,.12.16.23.18.36,0-.13.11-.15.22-.29a1.43,1.43,0,0,0,.59-.34c0,.25.07.5,0,.64-.57,1.36-.62,2.78-1.74,3.83a3.44,3.44,0,0,0-.3,1.45,28.13,28.13,0,0,1-1.1,4.76A45.47,45.47,0,0,1,590.3,258a15.88,15.88,0,0,1-.76,2.67,3.41,3.41,0,0,0-.76,2.67c.11.75-.36,1.07-1,1.16l-1.26.18c-.5.07-1.3-.19-1.52.09a3.06,3.06,0,0,0-.83,2.17,3.25,3.25,0,0,1-2.09,3.24c-.25,0-.36.18-.71.36-.16.67-.86,1.15-1.2.56s-1.38-.69-.79-1.93a11,11,0,0,0,.65-3.42c.09-.27-.2-.48-.5-.82-.09.27-.18.54-.3.56a3.3,3.3,0,0,1-2.67.13,8.1,8.1,0,0,0-3.92-1.48,2,2,0,0,1-1.77-1.66c-.4-2.75-.54-5.42,1-7.82l1.05-2.45c.11-.15.29-.68.41-.7.77,0,.74-.23.32-.43s-.59-.55-.09-.63a3.1,3.1,0,0,0,1.84-3.2.78.78,0,0,1,.28-.68c.43-.58.86-1.15.79-1.65-.19-2.15.83-4,1.61-5.6l.11-1c.25-.93.21-2.08,1-2.71.57-.46.75-1,.18-1.43.71-.36.57-1.36,1-1.93l.11-1.93.94-3.21c1.14,0,.75-1,1.07-1.43a1.43,1.43,0,0,0,.12-1.81,2.54,2.54,0,0,1,.12-1.81c.21-1.18.94-2.31,1.16-3.49a26.27,26.27,0,0,0,.95-4c0-.25-.59-.55-.75-.79a1.87,1.87,0,0,1-1.42-1.84l.18-.53c.87-1,1.19-2.35,2.62-3.07,2.06-.81,2.81-2.7,2.89-4.76.05-.52,0-.9.11-1l2.15-6.32c.53-1.61.19-2.2-1.42-2.73a20.67,20.67,0,0,0-3.17-.69,2.06,2.06,0,0,1-2.1-1.23c-.11-.75-1.43-1.07-.72-2.33.32-.43.07-1.28.09-2.05.09-.27,0-1,.35-1.08s.93-.64,1.36-.32a4.27,4.27,0,0,0,2.76-.4,62.57,62.57,0,0,1,6.59-3,1.91,1.91,0,0,0,1.16-1.7c.48-2,1.12-3.74,1.45-5.83.27-2.6.73-2.92,3.29-2.91.39.07.68.29,1.05.23,2.9-1.19,5.44.49,8.11,1.25a4.54,4.54,0,0,1,.86.64c.3.34.43,1.22.68,1.19a10.2,10.2,0,0,0,3,.08,40.16,40.16,0,0,1,5.53-1.57,12.66,12.66,0,0,0,2.93-.94c1.88-.27,3.81-1.06,5.74-1,1.52-.09,3.26-.47,4.87.06a4.33,4.33,0,0,0,1.29.07c2.89-.29,5.35.76,8.14,1.5a1,1,0,0,0,.32.47c-.25,0-.46.32-.71.36a1.52,1.52,0,0,0-1-.38l-.25,0c0,.12.07.5.32.46l.93.25a3.71,3.71,0,0,1,2.92,2.52c-1.25.18-.44,1.34-.83,2.16-.11.15.36.72.54,1.08a2.9,2.9,0,0,0,0-1c.11-.15.06-.52.31-.56,1.12-.16.43-.57.1-1-.16-.23-.07-.5-.09-.62A1.27,1.27,0,0,1,646.37,178.45Zm-72.16,76.17c.13,0,.24-.16.36-.17a22,22,0,0,0,.76-2.67c.11-.15-.07-.5-.09-.63-.1.14-.23.16-.17.54a9.77,9.77,0,0,0-.93,2.43Zm9.29-9.14c-.68.61-.64,1.76-1.73,2.17l0,.25c0,.12.27.09.4.07,1.12-.16,1.39-1,1.89-1.94,0-.12.07-.39.39-.82C584,245.28,583.6,245.34,583.5,245.48Zm.48-1.09c1.21-.43.65-1.63.92-2.44a.41.41,0,0,0-.16-.23,16.36,16.36,0,0,0-1.28,1.72,1.13,1.13,0,0,0-.4.83c-.12,0,.06.37.2.48A1.33,1.33,0,0,1,584,244.39Zm1.45,3.88-.46.32-.27.81a4.86,4.86,0,0,0-.58,2.13c.28-.69.71-1.26,1.1-2.08a1.84,1.84,0,0,0,.23-1.06ZM623,186.2c-4.24.74-7.65,2.77-11.82,4-.25,0-.73.24-.71.36-.66,1.63-1.94,2.46-2.06,4.26.07.5-.61,1.11-.74,1.13-1-.37-.92.65-1.12,1.06-.57,1.36-1.1,3-1.55,4.31a3.07,3.07,0,0,0,0,1.54c.7,1.31,1.88,2.41,2,4.06,0,.25.48.7.89.89l5.38,4.46a1.28,1.28,0,0,0,.66.16c.73-.23,1.11-2.08,2,0,.46-.32,1.34-.45,1.81-.77,1.12-1.95,3.87-1.46,5-3.16,2.6-.63,4.51-2.44,6.52-3.5,1.43-.72,2.86-1.44,3.22-3.41.07-.39.8-.63,1-1,.8-.63,1.73-1.27,2-2.08l1.88-3a19.14,19.14,0,0,0,1.39-2.75c.64-.86.44-1.35-.56-2.1-.43-.32-.83-.39-.4-1,.62-1,.07-1.29-.75-1.68a8.36,8.36,0,0,0-1.9-.75c-3-.71-6.18-1.15-9.2-1.73a2,2,0,0,1-1-.11A6.66,6.66,0,0,1,623,186.2Zm3.69,25.41a2.68,2.68,0,0,0-2.38.34,20.11,20.11,0,0,1-2.2,1.6l-.55.59a4.82,4.82,0,0,0,.79.14c.29.22.37-.05.73-.23a6.59,6.59,0,0,1,3.7-1.81,1,1,0,0,1,.07-.4S626.68,211.86,626.64,211.61Zm2.07,12.48c-.13,0-.2.41-.16.66a1,1,0,0,0,.57.43,20.62,20.62,0,0,0,2.4-1.11l-.08-.5c-.41-.2-.78-.15-1.2-.34Zm9-43.62a1.84,1.84,0,0,1-.6-.67c-1-1.27-3.05-.71-3.87-2l-.25,0c-1,.39-1.94-.11-3-.21-.15-.11-.24.16-.61.22.14.1.39.07.55.3a18.45,18.45,0,0,1,4.68,2.26,3.79,3.79,0,0,0,2.61.39A1.38,1.38,0,0,1,637.71,180.47Zm-6,41.77-.21.29c.41.19,1.13.73,1.23.59a4,4,0,0,0,1.07-1.44c-.12,0-.27-.09-.25,0A5.53,5.53,0,0,0,631.76,222.24Zm3.13-16.3a3.18,3.18,0,0,0,2.29-1.87.5.5,0,0,0-.18-.36l-.25,0c-.24.16-.57.47-.82.5l0-.12c-.42-1.09-.42-1.09-1.31-.2a2.61,2.61,0,0,1-.86.26c-.69.48-1.37,1.09-2,1.43,0,.13,0,.13-.18.54l.5-.07a13,13,0,0,0,1.25-1.08c.57-.47,1-.27,1.52-.09C634.91,205.17,634.86,205.69,634.89,205.94Zm.53-29c0,.13.32.47.45.45a5.14,5.14,0,0,0,1.5.68c1,.37.18-.54.41-.7.7-.49.09-.27-.29-.22a3.21,3.21,0,0,0-1.59-.4C635.79,176.92,635.67,176.94,635.42,177Zm2.38,34c1.25-.18,2-1.31,2.77-2.06a8.54,8.54,0,0,0,1.28-1.72c-.77-.91.38-.95.7-1.38l.3-.56-.63.09c-1.48,1.24-2.8,2.71-4.39,4.09l-.85,1.15c-.11.14-.11.14-.07.39.12,0,.26.09.39.07Zm5-13a12.5,12.5,0,0,1-2.77,1.17c-.72.36-1.36.33-.36,1.08.59.55.25.85.81.26l2.53-1.9a1.8,1.8,0,0,0,.43-.57C643.19,198,642.92,197.87,642.82,198Zm4.44-4.61c0-.12-.39-.07-.39-.07A14.39,14.39,0,0,0,646,195c0,.12.16.23.18.36C647.37,195.05,647.64,194.25,647.26,193.4ZM652.54,258c0-.13-.38.05-.46.32.07.5.82,1.28,1.29,1a1,1,0,0,0,.71-.36C653.92,257.75,653.08,258.13,652.54,258Z"/></svg>